<svg width="136" height="168" viewBox="0 0 136 168" fill="none" xmlns="http://www.w3.org/2000/svg">
<path fill-rule="evenodd" clip-rule="evenodd" d="M39.006 1.51247L39.006 1.51249L39.006 1.51249L39.0058 1.51255C38.8914 1.55503 38.7721 1.59931 38.6456 1.64514C38.0946 0.728697 37.8682 0.601756 37.0593 0.950131L37.0073 0.972467C36.6173 1.13965 36.203 1.31726 35.9801 1.77529C35.8721 1.99753 35.7236 2.19972 35.575 2.40218C35.4333 2.59519 35.2914 2.78845 35.1842 2.99958C34.7428 3.87059 34.4215 4.77798 34.6553 5.7854C34.7306 6.109 34.7899 6.43637 34.8513 6.77547L34.8513 6.77549C34.8796 6.93223 34.9085 7.09147 34.9395 7.25402L35.2708 7.47743C35.3107 7.50438 35.351 7.53096 35.3912 7.55755L35.3913 7.55757L35.3913 7.55759L35.3913 7.55761L35.3913 7.55763L35.3914 7.55764L35.3914 7.55766L35.3914 7.55768L35.3914 7.5577L35.3915 7.55772L35.3915 7.55774L35.3915 7.55775L35.3916 7.55777L35.3916 7.55779L35.3916 7.55781L35.3916 7.55783L35.3917 7.55785L35.3917 7.55786L35.3917 7.55788L35.3917 7.5579L35.3918 7.55792L35.3918 7.55794L35.3918 7.55796L35.3919 7.55798L35.3919 7.558L35.3919 7.55802L35.392 7.55805L35.392 7.55807L35.392 7.55809L35.3921 7.55812L35.3921 7.55814L35.3921 7.55816L35.3922 7.55818L35.3922 7.55821L35.3922 7.55823L35.3923 7.55825L35.3923 7.55828L35.3923 7.5583L35.3924 7.55832L35.3924 7.55834L35.3924 7.55837L35.3925 7.55839L35.3925 7.55841L35.3925 7.55843L35.3926 7.55846C35.4733 7.61175 35.554 7.66507 35.6325 7.72142C36.2462 8.16168 36.2456 8.16396 35.991 9.07917L35.9851 9.10041C35.9612 9.1861 35.9573 9.28444 35.9535 9.38093C35.9477 9.52693 35.9421 9.66871 35.8675 9.75609C35.4248 10.2738 35.5571 10.7757 35.7739 11.31L36.4196 10.7864L37.1377 10.2041L37.2913 10.3593L36.3826 11.7064C37.0879 12.4599 37.5416 11.964 37.965 11.5014C37.9912 11.4726 38.0174 11.444 38.0435 11.4159C38.3924 11.9811 38.7552 12.2802 39.3312 11.9487C39.7946 11.6821 39.8453 11.9652 39.897 12.2539L39.897 12.254L39.897 12.254C39.9041 12.2937 39.9112 12.3335 39.9194 12.3719C40.9112 11.9571 41.7327 11.2142 42.2464 10.2676C42.6739 9.54908 43.1505 8.86009 43.6271 8.17098L43.6272 8.17091L43.6272 8.17085L43.6273 8.17079L43.6273 8.17072L43.6274 8.17066L43.6274 8.1706L43.6274 8.17054L43.6275 8.17047L43.6275 8.17041L43.6276 8.17035L43.6276 8.17028L43.6277 8.17022L43.6277 8.17016L43.6277 8.1701L43.6278 8.17003L43.6278 8.16997L43.6279 8.16991L43.6279 8.16984L43.6279 8.16978L43.628 8.16972L43.628 8.16966L43.6281 8.16959C43.8732 7.81525 44.1183 7.46088 44.3568 7.10243C44.4863 6.887 44.6048 6.66519 44.712 6.43786L44.5843 6.35973L43.679 7.44997C43.7449 7.06045 43.9042 6.6923 44.1432 6.37727C44.3477 6.05996 44.5276 5.72746 44.6813 5.38272C44.7909 5.05068 44.8776 4.71156 44.9406 4.36781L44.3682 4.79875C44.4631 3.76946 44.4618 3.769 43.574 3.44029L43.567 3.43769C43.4456 3.39248 43.253 3.31702 43.2416 3.23669C43.1824 2.79389 42.9723 2.74221 42.552 2.7563C42.4537 2.75952 42.3641 2.61972 42.2654 2.46572C42.1744 2.32373 42.0757 2.16967 41.9553 2.10447C41.6303 1.95006 41.2749 1.86961 40.9144 1.86883C40.6799 1.85983 40.5951 1.69598 40.5124 1.5364C40.4362 1.38921 40.3619 1.24565 40.1737 1.23054C40.0364 1.21068 39.8965 1.21634 39.761 1.24723C39.5155 1.32331 39.2742 1.41291 39.006 1.51247ZM54.3196 28.033C54.1498 27.983 54.0289 27.7672 53.7915 27.3435C53.6525 27.399 53.5038 27.4192 53.3536 27.4397C53.0337 27.4833 52.7074 27.5277 52.4547 27.9162C52.1147 28.4213 51.976 29.0349 52.066 29.6354C52.0747 29.7041 52.0805 29.7761 52.0863 29.8489C52.105 30.0821 52.1243 30.3226 52.2429 30.4839C52.5902 30.9568 52.6627 31.4958 52.735 32.0335C52.7701 32.2949 52.8052 32.5559 52.8718 32.8089C53.1072 33.706 52.8069 34.5753 52.3819 35.3161C51.3502 37.1148 51.3454 39.0651 51.3406 41.0139L51.3401 41.1715C51.3392 41.8024 51.7808 42.2133 52.2292 42.6305C52.3058 42.7018 52.3826 42.7732 52.4573 42.8459L52.494 42.8816C53.3053 43.6707 53.496 43.8561 54.3018 43.4207L54.3902 43.3727C54.8954 43.097 55.2245 42.9174 55.4276 43.6999C55.442 43.759 55.6725 43.771 55.8508 43.7803L55.8774 43.7817C55.8991 43.7829 55.9198 43.784 55.9389 43.7853C56.0109 43.7897 56.1072 43.7797 56.1953 43.7705L56.1954 43.7705C56.3141 43.7581 56.4181 43.7472 56.429 43.7753C56.683 44.4645 57.0369 44.0218 57.2141 43.8002L57.2231 43.789C57.283 43.7141 57.3442 43.639 57.4056 43.5635L57.4056 43.5634L57.4057 43.5634L57.4057 43.5634L57.4058 43.5632C57.8113 43.0648 58.231 42.5489 58.4272 41.969C58.4961 41.7652 58.5873 41.5637 58.679 41.3613L58.679 41.3612L58.679 41.3611L58.679 41.3611L58.6791 41.361L58.6791 41.361L58.6791 41.3609L58.6792 41.3608L58.6792 41.3608L58.6792 41.3607L58.6792 41.3607L58.6793 41.3606L58.6793 41.3606L58.6793 41.3605L58.6793 41.3604L58.6794 41.3604L58.6794 41.3603L58.6794 41.3603L58.6794 41.3602L58.6795 41.3601L58.6795 41.3601L58.6795 41.36L58.6795 41.36L58.6796 41.3599L58.6796 41.3598C58.9096 40.8518 59.1426 40.3372 59.0353 39.7611C58.9322 39.39 59.0171 38.9908 59.2624 38.6922C59.349 38.5325 59.3883 38.3514 59.3754 38.1706C59.3808 38.0509 59.3868 37.931 59.3927 37.8112C59.4185 37.2915 59.4443 36.7714 59.4255 36.2535C59.4127 35.9056 59.3758 35.5588 59.339 35.2121C59.3013 34.8576 59.2636 34.5033 59.2517 34.1479C59.2346 33.6459 59.1736 33.1459 59.1134 32.6524L59.1134 32.6523L59.1133 32.6514C59.1013 32.5536 59.0894 32.4561 59.0779 32.3589C59.0647 32.2472 59.0533 32.1343 59.0418 32.0208L59.0418 32.0208C58.9644 31.2541 58.8846 30.4631 58.2245 29.8715C57.7732 29.4261 57.3464 28.9564 56.9459 28.4646C56.4799 28.5603 56.16 28.3172 55.8415 28.0752C55.6369 27.9198 55.4329 27.7648 55.1911 27.7002C54.7247 27.9583 54.4958 28.085 54.3196 28.033ZM90.1726 167.56C91.0517 166.613 92.0743 165.932 93.3359 165.839C93.4385 165.639 93.5294 165.453 93.6146 165.279L93.6148 165.279L93.6156 165.277L93.6158 165.277C93.7854 164.931 93.9323 164.632 94.1039 164.348C94.444 163.791 94.6676 163.142 94.2408 162.658C93.7315 162.081 93.5254 161.592 93.9433 160.911C93.9816 160.827 93.979 160.729 93.9364 160.647C93.5132 159.98 93.4146 159.229 93.316 158.48L93.316 158.479C93.2646 158.088 93.2132 157.697 93.1158 157.318L93.0778 157.169C92.8622 156.319 92.8507 156.273 91.8345 155.688C91.6303 155.57 91.4171 155.468 91.1721 155.351L91.0275 155.282C90.9492 155.244 90.8676 155.205 90.7821 155.163C90.6887 154.382 90.6446 153.595 90.6503 152.808C90.6622 152.59 90.6339 152.369 90.6055 152.147C90.5457 151.68 90.4858 151.211 90.8002 150.773C90.4688 150.479 90.4356 150.081 90.4055 149.72C90.3859 149.485 90.3676 149.266 90.2692 149.101L88.8773 148.519L88.423 149.192C88.364 148.973 88.3296 148.845 88.3144 148.787L87.6563 148.779C87.2708 151.157 87.1109 153.565 87.1791 155.97C87.2082 156.339 87.0142 156.691 86.6866 156.863C86.686 156.488 86.6796 156.121 86.6733 155.761C86.6594 154.969 86.6462 154.21 86.6966 153.454C86.7613 152.487 86.8797 151.522 86.9984 150.556L86.9984 150.556L86.9985 150.555L86.9986 150.554L86.9987 150.553L86.9988 150.553C87.0499 150.136 87.1011 149.719 87.148 149.302C86.186 149.326 86.1855 149.329 86.0461 150.077L86.0399 150.111C85.6339 152.29 85.5469 154.497 85.4601 156.698L85.4601 156.698C85.4469 157.033 85.4337 157.368 85.4194 157.703C85.3133 160.186 85.3046 162.683 85.9376 165.134C86.0612 165.613 86.2754 166.03 86.4892 166.446L86.4895 166.447C86.5866 166.636 86.6837 166.825 86.7722 167.02C86.9153 167.247 87.164 167.387 87.4332 167.39C87.8098 167.311 88.0931 167.425 88.3975 167.547L88.4565 167.57C88.5152 167.594 88.5748 167.617 88.6363 167.639C88.6751 167.652 88.7147 167.667 88.755 167.682C89.2002 167.845 89.728 168.039 90.1726 167.56ZM101.059 126.232C100.997 125.91 100.945 125.596 100.893 125.289C100.784 124.636 100.68 124.015 100.506 123.414C99.9123 121.363 100.153 119.32 100.395 117.278C100.451 116.797 100.508 116.316 100.554 115.836C100.645 114.88 101.197 114.131 101.742 113.39L101.743 113.389C101.844 113.251 101.946 113.113 102.044 112.974C102.117 112.87 102.286 112.834 102.461 112.796C102.544 112.778 102.627 112.76 102.703 112.735L102.698 112.768C102.641 113.211 102.587 113.631 102.51 114.238L103.63 112.578C103.777 112.597 103.919 112.625 104.056 112.651C104.355 112.708 104.631 112.76 104.894 112.721C105.284 112.682 105.664 112.856 105.888 113.177C106.068 113.379 106.167 113.653 106.27 113.941C106.316 114.069 106.363 114.199 106.418 114.327C105.645 115.073 105.494 116.033 105.404 117.078C105.564 117.132 105.701 117.241 105.841 117.352C106.089 117.549 106.346 117.752 106.758 117.665C106.953 117.676 107.129 117.784 107.228 117.952C107.358 118.233 107.51 118.507 107.662 118.782C108.151 119.666 108.641 120.552 108.405 121.673L108.389 121.748L108.389 121.749C108.335 121.998 108.272 122.288 108.369 122.475C108.436 122.606 108.383 122.731 108.331 122.855C108.258 123.027 108.186 123.197 108.434 123.378C108.668 123.55 108.534 123.702 108.397 123.857C108.328 123.935 108.258 124.013 108.235 124.095C108.166 124.404 108.074 124.707 107.962 125.003C107.822 125.259 107.661 125.504 107.481 125.734C106.046 125.942 104.681 126.499 103.505 127.354L101.059 126.232ZM102.134 58.8118L102.132 58.8118C101.552 58.8176 100.981 58.8232 100.412 58.7991C100.366 58.7973 100.326 58.6666 100.275 58.5017L100.275 58.5015L100.275 58.5012C100.248 58.4138 100.219 58.3168 100.183 58.2242C99.9553 58.359 99.7177 58.4767 99.4725 58.5764C99.1901 58.6504 98.9041 58.7098 98.6157 58.7545L98.539 58.7711C97.986 58.8909 97.4373 59.0097 97.3028 58.1742C97.2961 58.1332 97.2387 58.103 97.1785 58.0712C97.1409 58.0515 97.1023 58.0311 97.0741 58.0072C96.9416 57.8952 96.802 57.7972 96.6632 57.6999C96.2535 57.4126 95.8506 57.13 95.6567 56.502C95.5738 56.2336 95.4591 55.9696 95.3431 55.7025C95.1663 55.2959 94.9865 54.882 94.9111 54.4344C94.75 53.7459 94.6881 53.0373 94.7274 52.3301C94.8532 51.2114 94.9789 50.1063 95.7875 49.2391C96.0612 49.0197 96.36 48.8339 96.6775 48.6855L97.0101 49.8097C97.1857 49.6658 97.3489 49.5019 97.5138 49.3361L97.514 49.336C97.9496 48.8982 98.3974 48.4483 99.1194 48.3247L99.4903 49.397L100.088 48.5109C100.365 48.6353 100.643 48.7416 100.919 48.8468C101.526 49.0784 102.119 49.3046 102.644 49.707C103.061 49.9993 103.357 50.4326 103.48 50.9278C103.525 51.1354 103.587 51.3376 103.649 51.5403C103.769 51.9318 103.89 52.3251 103.886 52.7622C103.882 53.065 103.917 53.3682 103.952 53.6744C103.986 53.9734 104.02 54.2751 104.02 54.582C104.018 55.2199 103.864 55.8224 103.709 56.424C103.617 56.7842 103.525 57.1441 103.465 57.5111C103.414 57.8332 103.173 58.1256 102.935 58.4152C102.827 58.5458 102.72 58.6757 102.631 58.8076C102.467 58.8085 102.304 58.8101 102.142 58.8117L102.134 58.8118ZM34.0081 50.1416L35.768 47.5324L35.5814 47.3289C35.4012 47.4796 35.1982 47.6203 34.9952 47.761L34.9952 47.761L34.9952 47.761C34.5342 48.0805 34.0733 48.4001 33.8789 48.8367C33.7983 49.019 33.7073 49.2001 33.6154 49.3828L33.6154 49.3829C33.3236 49.9633 33.0233 50.5609 33.0193 51.2695C33.017 51.6874 32.957 52.1074 32.8971 52.5271C32.7583 53.4997 32.6196 54.4707 33.199 55.4109C32.9421 56.0982 33.2776 56.6263 33.5997 57.1332C33.6862 57.2695 33.7718 57.4042 33.8447 57.54C34.3159 58.419 34.8455 59.3222 36.0813 59.3437C36.9035 59.3581 37.7249 59.411 38.5377 59.4634L38.538 59.4634C38.8931 59.4863 39.2466 59.509 39.5978 59.5284C39.8304 59.1275 40.0933 58.745 40.3841 58.3841C41.0195 57.7096 41.1109 56.8359 41.0583 56.0476C41.0271 55.587 41.1528 55.1285 41.415 54.7471C41.4698 54.247 41.3336 53.8291 41.2015 53.4237C41.0848 53.0655 40.9712 52.717 40.9953 52.3301C40.9615 51.9182 40.7424 51.5453 40.4001 51.3167C40.1938 51.1937 40.0055 51.0361 39.8165 50.878L39.8165 50.878L39.8164 50.878L39.8164 50.8779L39.8164 50.8779L39.8164 50.8779L39.8163 50.8779L39.8163 50.8779L39.8163 50.8778L39.8162 50.8778L39.8162 50.8778L39.8162 50.8778L39.8162 50.8778L39.8161 50.8777L39.8161 50.8777L39.8161 50.8777L39.816 50.8777L39.816 50.8777L39.816 50.8776L39.816 50.8776L39.8159 50.8776C39.3876 50.5193 38.9555 50.1578 38.3023 50.1863C38.2025 50.1907 38.1041 50.0491 37.9982 49.8968L37.9982 49.8967C37.925 49.7915 37.8483 49.6811 37.765 49.6101C37.7006 49.555 37.5994 49.5431 37.4653 49.5273C37.3941 49.5189 37.3136 49.5095 37.2243 49.4918C37.419 49.2739 37.5776 49.0262 37.6942 48.7583C37.7542 48.5179 37.7181 48.0678 37.5818 48.0024C37.1684 47.8293 36.7304 47.7209 36.2834 47.6812C35.9532 47.6367 35.819 47.8743 35.6887 48.1052C35.65 48.1737 35.6116 48.2416 35.5686 48.3013C35.4829 48.4201 35.3992 48.5404 35.3155 48.6607L35.3155 48.6609C34.9421 49.1977 34.568 49.7357 34.0081 50.1416ZM50.2772 76.4636L49.7454 73.6818C50.026 73.2142 50.3384 72.7665 50.6805 72.342C50.8219 72.1832 51.1888 72.1767 51.4442 72.1997C51.5115 72.2057 51.5663 72.3462 51.621 72.4864C51.6448 72.5474 51.6686 72.6084 51.6934 72.6582C51.7533 72.6245 51.8134 72.5872 51.8741 72.5495C52.2295 72.3289 52.6019 72.0977 53.042 72.5385C53.1344 72.6476 53.2642 72.718 53.4061 72.7362C53.8642 72.6956 54.3517 72.6665 54.6582 73.0276C54.763 73.1507 54.8724 73.2729 54.9824 73.3957C55.4501 73.918 55.9282 74.4518 56.099 75.1213C56.5156 76.7562 56.8261 78.4367 56.4395 80.1312C56.2261 81.1482 55.9154 82.1427 55.5117 83.101C55.2975 83.6024 54.8163 83.9381 54.2738 83.9646C53.8832 83.9725 53.4925 83.9888 53.102 84.0051L53.1018 84.0051L53.1016 84.0051L53.1014 84.0051L53.1011 84.0051L53.101 84.0051L53.1007 84.0051L53.1006 84.0051L53.1003 84.0051L53.1002 84.0051L53.0999 84.0052L53.0997 84.0052L53.0994 84.0052L53.0993 84.0052L53.099 84.0052L53.0989 84.0052L53.0986 84.0052L53.0985 84.0052L53.0982 84.0052L53.0981 84.0052C52.477 84.0311 51.8561 84.057 51.2358 84.049C50.8699 84.0454 50.5147 83.9281 50.2193 83.7132C48.5661 82.3756 47.8754 80.7 48.703 78.3542C48.7425 78.2424 48.7714 78.1217 48.8002 78.0013C48.8596 77.7535 48.9188 77.5068 49.0686 77.3416C49.4387 77.006 49.844 76.7116 50.2772 76.4636ZM24.0064 121.602L23.6564 122.43C24.0893 122.157 24.3753 121.87 24.3399 121.298C24.3175 120.933 24.379 120.572 24.441 120.208L24.441 120.208C24.5246 119.717 24.6091 119.222 24.4901 118.704C24.392 118.39 24.3309 118.066 24.3081 117.737C24.4093 115.729 23.6361 114.036 22.6152 112.411L22.5919 112.373L22.5756 112.347C22.4596 112.159 22.3047 111.907 22.1903 111.918C21.8243 111.952 21.6815 111.749 21.5301 111.534C21.4939 111.483 21.4573 111.431 21.417 111.381C21.2998 111.237 21.0845 111.045 20.9464 111.07C20.4804 111.152 20.0477 111.057 19.6115 110.962L19.6114 110.962C19.5172 110.941 19.423 110.921 19.3281 110.902C19.2101 110.878 18.9793 110.848 18.9931 111.176C18.9995 111.337 18.9154 111.502 18.8195 111.69C18.773 111.781 18.7237 111.877 18.6806 111.982C18.2893 111.286 17.8881 110.825 17.2187 111.092C17.1722 111.293 17.1141 111.489 17.0573 111.68L17.0573 111.68L17.0573 111.68L17.0573 111.68L17.0573 111.68L17.0572 111.681L17.0572 111.681L17.0572 111.681L17.0572 111.681L17.0572 111.681L17.0571 111.681L17.0571 111.681L17.0571 111.681L17.0571 111.681L17.0571 111.681L17.057 111.681L17.057 111.681L17.057 111.681L17.057 111.681C16.9355 112.091 16.8201 112.48 16.8368 112.862C16.8528 113.229 16.8214 113.601 16.79 113.973C16.7228 114.769 16.6555 115.566 17.0512 116.327C16.8873 118.084 17.6071 119.577 18.3296 121.076L18.3297 121.076L18.3301 121.077C18.3909 121.203 18.4517 121.33 18.5119 121.456C18.6993 121.985 19.2071 122.329 19.7676 122.308C19.7927 122.308 19.8189 122.308 19.8458 122.308C20.0724 122.304 20.3466 122.301 20.4472 122.714C20.5233 122.869 20.6644 122.981 20.8321 123.021C20.9999 123.06 21.1769 123.023 21.315 122.918C21.6542 122.624 22.0856 122.52 22.5186 122.415C23.0765 122.281 23.6371 122.146 24.0064 121.602ZM135.258 115.214L135.827 114.585C135.843 114.629 135.86 114.667 135.876 114.7C135.905 114.762 135.928 114.809 135.919 114.85C135.863 115.114 135.815 115.38 135.767 115.645L135.767 115.646C135.637 116.357 135.508 117.068 135.24 117.751L135.202 117.849C134.986 118.405 134.781 118.934 134.06 118.997C133.862 119.014 133.712 119.172 133.563 119.33C133.32 119.586 133.078 119.842 132.629 119.5C131.903 119.827 131.379 119.415 130.871 119.016L130.832 118.985C130.485 119.294 130.118 119.579 129.733 119.838C129.297 120.093 128.646 119.809 128.145 119.212C128.099 119.156 128.064 119.085 128.03 119.015C127.98 118.913 127.931 118.813 127.85 118.768L127.821 118.752C126.785 118.178 126.783 118.177 126.896 117.103C126.925 116.56 126.983 116.019 127.072 115.483C127.223 114.885 127.109 114.253 126.758 113.749C126.233 112.944 126.163 111.921 126.573 111.046C126.935 110.255 127.706 109.825 128.684 109.738L128.714 110.273L128.715 110.288L128.721 110.392L128.723 110.429L128.724 110.439L128.724 110.445L128.726 110.471C128.749 110.875 128.774 111.316 128.805 111.85C128.93 111.663 129.042 111.496 129.145 111.342L129.148 111.337L129.151 111.333L129.154 111.329L129.156 111.325L129.159 111.322C129.375 110.999 129.552 110.733 129.736 110.473C129.955 110.162 129.99 110.169 130.406 110.255C130.511 110.277 130.641 110.303 130.805 110.331C131.001 110.365 131.185 110.464 131.369 110.564C131.727 110.758 132.085 110.952 132.527 110.658L133.868 111.49C134.695 112.001 135.35 112.571 135.118 113.725C135.054 114.038 135.116 114.377 135.18 114.726C135.21 114.887 135.24 115.05 135.258 115.214ZM11.7506 38.3435C11.3179 39.1436 11.4707 40.1318 12.1239 40.7571L13.2375 40.0179C13.0001 40.8084 12.9511 41.4929 13.6552 42.0887C13.9234 41.931 14.1995 41.7871 14.4821 41.6574C14.5576 41.6265 14.6463 41.6133 14.7342 41.6002C14.9817 41.5634 15.2226 41.5276 15.1421 41.0983L15.8277 41.6402C16.253 41.3808 16.8217 41.0345 17.3547 40.7102C17.4172 40.7799 17.478 40.8487 17.5379 40.9163L17.539 40.9176C17.7303 41.1336 17.9121 41.3388 18.105 41.5327C18.1381 41.5681 18.3178 41.5311 18.3482 41.479C18.4137 41.366 18.4962 41.1683 18.4455 41.1022C18.3948 41.0359 18.3109 40.9879 18.2297 40.9414C18.1318 40.8854 18.0379 40.8317 18.011 40.7511C17.9803 40.6606 18.0382 40.5394 18.1171 40.3743C18.1583 40.2884 18.205 40.1905 18.248 40.0789L18.4412 40.839C18.6296 40.5597 18.815 40.2852 18.9979 40.0145L18.9981 40.0142L18.9982 40.014C19.6696 39.0199 20.307 38.0762 20.9357 37.1269C20.9735 37.0696 20.9752 36.9908 20.9769 36.9103C20.9782 36.8477 20.9795 36.7841 20.9978 36.7289C21.0992 36.4235 21.1448 36.0986 21.1896 35.78C21.2778 35.1518 21.3625 34.5483 21.8643 34.1678C22.0622 33.3699 21.6237 33.0207 21.2115 32.6924C20.9411 32.477 20.682 32.2707 20.6212 31.9526C20.4128 31.9296 20.1995 31.9257 19.9917 31.922C19.5444 31.9139 19.1221 31.9063 18.826 31.7091C18.5015 31.493 18.1531 31.5014 17.8114 31.5096C17.4632 31.5179 17.1219 31.5261 16.8201 31.2961C16.7427 31.237 16.4115 31.3596 16.3294 31.4856C16.1815 31.7122 15.9746 31.8669 15.7653 32.0234C15.5317 32.198 15.2952 32.3749 15.1343 32.6563C14.5061 33.7601 13.7961 34.8155 13.0106 35.8134C12.5919 36.3424 12.3439 36.9454 12.0977 37.5442C11.9868 37.8139 11.8762 38.0827 11.7506 38.3435ZM63.0914 156.478L63.0911 156.477L63.0907 156.477C62.5987 156.096 62.1568 155.753 61.5031 156.17C61.4495 155.15 61.7133 154.628 62.5955 154.441C62.8197 154.393 63.0356 154.322 63.2526 154.251L63.2527 154.251L63.2527 154.251L63.2528 154.251L63.2528 154.251L63.2529 154.251L63.253 154.25L63.253 154.25L63.2531 154.25L63.2532 154.25L63.2532 154.25L63.2533 154.25L63.2534 154.25L63.2534 154.25L63.2535 154.25L63.2535 154.25C63.626 154.128 64.0015 154.004 64.4271 153.996C64.7679 153.99 65.1006 153.813 65.4386 153.634C65.686 153.503 65.9363 153.37 66.1946 153.301C66.5199 153.214 66.8709 153.227 67.2219 153.239C67.3784 153.244 67.535 153.25 67.6892 153.246L67.8232 153.912L66.9819 153.935L66.9464 154.124L67.8993 154.568C67.8987 154.617 67.8893 154.682 67.8787 154.755C67.8508 154.948 67.8144 155.198 67.9106 155.377C68.708 156.854 68.7675 158.462 68.77 160.074C68.7705 160.387 68.6893 160.7 68.6078 161.014L68.6078 161.014C68.5517 161.23 68.4955 161.446 68.4656 161.664L68.4367 161.876C68.2818 163.018 68.2436 163.299 67.5289 164.057C66.982 164.637 66.3944 165.252 65.5262 165.44C65.1636 165.496 64.8286 165.669 64.5732 165.934C64.0897 166.594 63.6463 166.452 63.1261 166.05C62.9763 165.937 62.8094 165.849 62.6315 165.789C61.5089 165.406 61.4288 165.314 61.4494 164.262C61.4745 162.966 61.8259 161.733 62.1767 160.503L62.1767 160.503C62.2473 160.255 62.3178 160.008 62.3857 159.76C62.584 159.034 62.8231 158.32 63.0591 157.614L63.0594 157.613C63.1635 157.302 63.2671 156.993 63.3662 156.685C63.2719 156.618 63.1808 156.547 63.0914 156.478ZM56.8052 132.595C56.8692 132.722 56.9334 132.85 56.9967 132.978C57.4177 132.651 57.9245 132.498 58.0938 132.96C58.3337 133.621 58.6332 133.341 58.8761 133.105C58.9233 133.059 58.968 133.008 59.0124 132.957C59.1654 132.781 59.3153 132.608 59.558 132.678C59.9362 132.786 60.2504 132.649 60.5605 132.513C60.694 132.455 60.8268 132.397 60.9636 132.359C61.3317 132.256 61.8094 131.984 61.9289 131.671C62.1087 131.126 62.1665 130.548 62.0982 129.98C62.0683 129.644 61.964 129.316 61.8594 128.987C61.7906 128.771 61.7217 128.555 61.6737 128.335C61.6126 128.057 61.5615 127.775 61.5104 127.494C61.3654 126.695 61.2203 125.896 60.847 125.161C60.683 124.838 60.5579 124.496 60.4328 124.154L60.4328 124.153C60.1978 123.51 59.963 122.868 59.4699 122.356C58.9514 121.89 58.5997 121.266 58.4683 120.579C58.3454 119.806 57.9576 119.651 57.063 119.667C56.9555 119.669 56.8302 119.66 56.7041 119.65C56.4075 119.628 56.106 119.605 56.0177 119.73C55.788 120.055 55.5937 119.929 55.4002 119.803C55.2221 119.688 55.0446 119.573 54.8406 119.81C54.5526 121.392 54.7449 123.044 54.9362 124.688C54.9581 124.876 54.9799 125.064 55.0011 125.251C55.1329 126.42 55.3749 127.576 55.617 128.732L55.617 128.732C55.7349 129.295 55.8528 129.858 55.958 130.423C56.104 131.206 56.4517 131.895 56.8052 132.595ZM109.63 154.429L109.63 154.428L109.634 154.374C109.722 153.115 109.9 151.863 110.164 150.627C110.223 150.359 110.267 150.085 110.311 149.809C110.468 148.818 110.63 147.807 111.506 147.01C111.747 147.637 111.626 148.243 111.5 148.871C111.386 149.442 111.269 150.032 111.416 150.673C111.801 149.916 111.97 149.145 112.146 148.343C112.281 147.727 112.42 147.094 112.663 146.435L113.161 147.409C113.342 147.222 113.531 147.027 113.719 146.832L115.015 147.387C115.012 147.461 115.008 147.544 115.003 147.634L115.002 147.634L115.002 147.636C114.99 147.857 114.975 148.118 114.981 148.377C115.014 149.792 115.022 149.802 115.941 151.053L115.964 151.084C116.066 151.234 116.15 151.394 116.216 151.562C116.766 152.822 117.177 154.103 116.989 155.524C116.915 156.168 116.717 156.793 116.405 157.362C116.345 157.485 116.327 157.625 116.354 157.759C116.387 157.879 116.353 158.008 116.266 158.097C116.179 158.187 116.052 158.225 115.931 158.196C115.516 158.164 115.133 158.287 114.751 158.409C114.443 158.508 114.134 158.607 113.809 158.624C113.527 158.659 113.273 158.815 113.114 159.051C112.828 159.365 111.846 159.358 111.579 159.072C111.525 159.013 111.501 158.924 111.477 158.834C111.43 158.656 111.383 158.477 111.086 158.535C110.851 158.596 110.621 158.672 110.396 158.763C109.416 157.282 109.524 155.84 109.63 154.429ZM89.5536 103.65L90.3737 104.025C90.7081 103.865 90.8204 103.559 90.9333 103.251C91.0355 102.973 91.1382 102.693 91.4061 102.518C91.5119 102.398 91.5212 102.22 91.4286 102.09C91.3359 101.96 91.1658 101.912 91.018 101.974C90.9596 101.985 90.8777 101.875 90.7959 101.765C90.7583 101.715 90.7206 101.664 90.6853 101.625C90.7186 101.598 90.7579 101.56 90.7971 101.523C90.8812 101.443 90.9653 101.364 90.9905 101.379C91.6505 101.787 91.8224 101.12 91.8896 100.831C91.946 100.59 92.0067 100.348 92.0676 100.107C92.3158 99.1202 92.5653 98.1286 92.5277 97.1044L92.5272 97.0907C92.5075 96.5588 92.4825 95.8817 91.6109 95.9677C91.5661 95.971 91.4885 95.8881 91.4637 95.8293C91.1904 95.1814 90.7626 95.168 90.2325 95.5153C89.7697 95.8186 89.7099 95.4972 89.663 95.2457L89.6548 95.2022L88.6336 95.284L88.2064 96.5057C88.127 96.343 88.1219 96.1721 88.1168 96.0047C88.1082 95.7184 88.0999 95.4424 87.7213 95.2349L87.5565 95.3154L87.5561 95.3156L87.5552 95.316L87.5542 95.3165L87.5539 95.3167L87.553 95.3171C87.3922 95.3958 87.2129 95.4835 87.0325 95.5688C86.9449 95.6099 86.8504 95.6681 86.7559 95.7262C86.5466 95.855 86.3371 95.9839 86.2 95.9292C85.6329 95.703 85.5678 96.0479 85.509 96.3595C85.5013 96.4001 85.4937 96.4401 85.4852 96.4782C85.3866 96.9168 85.3088 97.36 85.2311 97.8033C85.1764 98.1149 85.1218 98.4266 85.0598 98.7368C85.0049 98.9185 84.9318 99.0943 84.8416 99.2614L84.603 99.1927C84.7828 98.1358 84.9628 97.079 85.1649 95.892C84.4881 96.5168 84.3677 97.1687 84.2441 97.8813C84.0523 99.0087 84.0063 100.155 84.1074 101.293C84.2308 102.734 84.6115 104.117 86.1372 104.779C86.2562 104.843 86.369 104.917 86.474 105.002L89.4745 104.409L89.5536 103.65ZM103.501 75.1237L103.661 75.9636L103.935 75.6433C104.094 75.4577 104.244 75.2834 104.401 75.0993C104.57 75.1678 104.742 75.2348 104.915 75.3023C105.324 75.4622 105.741 75.625 106.144 75.8178C106.494 75.9859 106.817 76.2052 107.102 76.4687C107.193 76.5523 107.158 76.6577 107.119 76.7771C107.065 76.9416 107.003 77.1326 107.246 77.3299C107.471 77.5116 107.433 77.9841 107.399 78.4147L107.399 78.4151L107.399 78.4157L107.398 78.4171C107.391 78.5055 107.384 78.5921 107.38 78.674C107.373 78.7999 107.301 78.9303 107.227 79.0622C107.072 79.3406 106.914 79.6259 107.36 79.891L106.626 81.1198C106.61 81.1473 106.597 81.1766 106.584 81.2061L106.572 81.2311L106.566 81.2451L107.143 84.2638C107.349 84.3827 107.545 84.5179 107.729 84.668C107.996 84.9183 108.118 85.4355 107.839 85.5172C107.507 85.6146 107.473 85.8607 107.442 86.0946C107.414 86.2974 107.388 86.491 107.169 86.5702C106.044 86.2219 105.729 86.0541 105.059 85.4077C104.97 85.9503 104.892 86.4234 104.794 87.0178C104.735 87.0284 104.662 87.0515 104.584 87.0759C104.401 87.1337 104.194 87.1991 104.084 87.1234C103.873 86.979 103.652 86.8448 103.431 86.7105C102.611 86.2131 101.787 85.7129 101.466 84.6816C101.318 84.3399 101.208 83.9829 101.138 83.6168C101.083 82.9109 101.079 82.2005 101.074 81.4908L101.073 81.264L101.072 81.1297C101.07 80.8926 101.082 80.6554 101.094 80.4181C101.103 80.2457 101.112 80.0732 101.115 79.9007C101.12 79.6606 101.196 79.4285 101.273 79.1964C101.399 78.8149 101.524 78.4335 101.332 78.0172C101.669 77.6481 101.732 77.2053 101.797 76.7527L101.797 76.7524C101.817 76.6137 101.837 76.4741 101.865 76.3353C101.914 75.9541 102.117 75.6089 102.426 75.3799C102.735 75.151 103.123 75.0584 103.501 75.1237ZM79.4763 32.6924L78.3606 31.9399C77.6856 31.3677 76.8875 30.9594 76.028 30.7465C75.6612 30.6537 75.2793 30.6624 74.8944 30.6712C74.5033 30.6801 74.1091 30.6891 73.7246 30.5917C73.6378 30.5695 73.461 30.7043 73.4009 30.8089C73.2125 31.1305 73.0471 31.465 72.9061 31.8099C72.6477 32.4558 72.6752 33.1221 72.7028 33.7904C72.7111 33.9913 72.7194 34.1923 72.7199 34.3931C72.7254 36.1059 73.0848 37.6304 74.6302 38.6299C74.7504 38.6973 74.8415 38.8066 74.8865 38.9371C74.9662 39.4497 75.2989 39.4655 75.6302 39.4813C75.8112 39.4899 75.9919 39.4985 76.1305 39.5882C76.8028 39.2914 77.5018 39.3774 78.1834 39.4612C78.4251 39.4909 78.6646 39.5204 78.8999 39.5324C79.7005 39.5734 80.106 39.3213 80.3244 38.7366C80.3679 38.6203 80.4131 38.504 80.4584 38.3873C80.8131 37.4738 81.1751 36.5415 80.7704 35.5202C80.7165 35.3831 80.7003 35.2303 80.6841 35.0771C80.6501 34.7561 80.6159 34.4337 80.2353 34.2519C80.1352 34.1726 80.0836 34.0468 80.0987 33.9195C80.3924 33.2907 79.9967 33.0327 79.5988 32.7732C79.5577 32.7464 79.5167 32.7196 79.4763 32.6924ZM36.6362 89.6194C36.6242 90.0186 36.6153 90.312 36.5983 90.8821C36.7302 90.7335 36.829 90.623 36.9071 90.5355L36.9076 90.5351L36.9079 90.5346C37.0322 90.3956 37.1042 90.3151 37.1743 90.2325L37.1756 90.2309C37.3485 90.0269 37.442 89.9165 37.5551 89.8903C37.6881 89.8595 37.8481 89.9452 38.1965 90.1317L38.1983 90.1326C38.2189 90.1437 38.2415 90.1577 38.2645 90.172C38.3318 90.2139 38.4034 90.2584 38.4451 90.24C38.9443 89.9934 39.5459 90.137 39.8771 90.5819C40.3002 91.0496 40.6263 91.5971 40.8368 92.1929C41.4778 94.4728 41.2104 96.7689 40.6763 99.0362C40.6141 99.301 40.4238 99.536 40.2347 99.7696C40.1478 99.877 40.0611 99.9841 39.9872 100.094L39.5605 99.731C39.2966 100.187 38.9809 100.444 38.4043 100.206C38.174 100.148 37.9293 100.208 37.7506 100.366C37.5096 100.658 37.2834 100.558 37.0616 100.46C36.9103 100.393 36.7611 100.327 36.6105 100.387C36.6233 100.023 36.3712 99.9203 36.1175 99.8165C35.8963 99.726 35.6739 99.635 35.6244 99.3708C35.5889 99.1799 35.5328 98.9885 35.4768 98.7977C35.3729 98.4437 35.2696 98.0918 35.3 97.7491C35.3742 96.5805 35.574 95.4227 35.896 94.2957C36.0835 93.8178 36.0704 93.2852 35.8598 92.8194C35.4944 92.1114 35.3626 91.3044 35.4831 90.5139L35.4876 90.487C35.5965 89.8299 35.5973 89.8251 36.6362 89.6194ZM69.1334 90.3213C69.013 90.4517 68.91 90.5972 68.827 90.7541C68.8368 91.2311 68.8971 91.6853 68.9562 92.1304C68.9843 92.342 69.0122 92.5516 69.0342 92.7606C69.1661 94.0565 69.3044 95.3874 70.0904 96.5582C70.6155 97.3396 71.3446 97.7043 72.0654 97.4523C72.2719 97.3801 72.4988 97.3796 72.7246 97.3791C73.1286 97.3782 73.5293 97.3773 73.8042 96.966C74.5288 97.3175 74.7872 96.6915 74.9198 96.2746C75.291 95.1087 75.6404 93.9121 75.4717 92.6648C75.4407 92.4351 75.3637 92.2125 75.2867 91.9896L75.2866 91.9895C75.2154 91.7834 75.144 91.5771 75.109 91.365C75.0508 91.0142 75.0339 90.6564 75.0157 90.2701L75.0157 90.27C75.0074 90.0947 74.9989 89.9136 74.9861 89.7246L72.9772 88.8716L72.8273 89.031L72.7269 89.1375L72.7251 89.1394C72.5975 89.2748 72.4682 89.4121 72.3119 89.5788L71.7124 87.5706C71.56 87.5963 71.403 87.6388 71.2549 87.6789C70.9537 87.7604 70.6898 87.8318 70.5777 87.7319C70.3956 87.57 70.1915 87.5144 69.9874 87.4587C69.7871 87.4041 69.5868 87.3495 69.4071 87.1945C69.4177 87.4068 69.5728 87.5476 69.7223 87.6833C69.9539 87.8936 70.1722 88.0917 69.8188 88.5248L69.4191 87.9003C68.8415 88.3467 69.0663 88.8247 69.2998 89.3213L69.2999 89.3216C69.3228 89.3703 69.3458 89.4193 69.3682 89.4684C69.4494 89.2143 69.532 88.9608 69.6341 88.6463C69.7519 88.7477 69.8516 88.8684 69.9289 89.0034C69.9886 89.1815 70.0017 89.3723 69.9668 89.5575C69.9548 89.6066 69.8873 89.6382 69.8158 89.6718C69.7504 89.7025 69.6816 89.7348 69.6487 89.7836C69.6123 89.8388 69.6025 89.9139 69.5929 89.9877C69.5823 90.0691 69.5719 90.1489 69.5263 90.1982C69.4854 90.2428 69.408 90.2523 69.3298 90.2619C69.2546 90.2712 69.1786 90.2805 69.1334 90.3213ZM78.1068 119.958L78.567 120.567C78.964 120.031 78.8957 119.493 78.8266 118.948C78.7678 118.485 78.7084 118.016 78.9332 117.538C79.072 117.718 79.1902 117.912 79.2857 118.118C79.3725 118.459 79.4416 118.804 79.4928 119.152C79.7174 118.767 79.7985 118.316 79.7219 117.878C80.3706 117.685 80.6556 117.6 80.9134 117.651C81.1153 117.692 81.3004 117.816 81.6307 118.037C81.6601 118.264 81.6748 118.5 81.6896 118.738L81.6896 118.738C81.7236 119.285 81.7583 119.843 81.9741 120.318C82.182 120.776 82.174 121.225 82.1661 121.671C82.1611 121.958 82.156 122.244 82.2084 122.529C82.2917 123.253 82.2664 123.987 82.1332 124.705C82.103 125.116 81.9525 125.51 81.7005 125.838C81.3748 126.187 80.8215 126.65 80.4718 126.576C80.0702 126.491 79.8924 126.655 79.7101 126.823C79.6309 126.896 79.5509 126.97 79.4513 127.024C79.0017 127.271 78.4871 127.458 77.943 127.209C77.8277 127.156 77.69 127.121 77.5543 127.087L77.5542 127.087C77.3161 127.027 77.0844 126.968 76.9918 126.818C76.6115 126.247 76.3448 125.607 76.2064 124.934C76.025 123.684 75.9241 122.424 75.9044 121.16C75.8985 120.95 76.0385 120.736 76.2031 120.483L76.2032 120.483L76.2033 120.483C76.2869 120.355 76.377 120.217 76.4575 120.065L76.6635 120.74C76.8819 120.288 77.2567 120.203 77.6106 120.122C77.7889 120.082 77.9618 120.043 78.1068 119.958ZM41.2653 159.482L41.67 160.272C41.879 159.818 42.0572 159.35 42.2032 158.873C42.2482 158.669 42.1758 158.291 42.0409 158.223C41.7448 158.075 41.6825 157.813 41.6244 157.568C41.5869 157.41 41.5511 157.259 41.4552 157.151C41.2114 156.881 41.1677 156.588 41.1243 156.297C41.1074 156.183 41.0904 156.07 41.0616 155.958C41.0033 155.731 40.9736 155.491 40.944 155.252C40.8938 154.847 40.8442 154.446 40.6568 154.122C40.4701 153.799 40.4034 153.465 40.3376 153.136C40.2951 152.923 40.2529 152.711 40.1788 152.506C40.0482 152.143 39.9109 151.783 39.7739 151.424L39.7738 151.424L39.7737 151.423L39.7736 151.423L39.7735 151.423L39.7731 151.422L39.7727 151.421L39.7019 151.235C39.6652 151.138 39.6286 151.042 39.5923 150.946L38.2835 150.063C38.1157 150.591 37.886 150.437 37.6543 150.281C37.4732 150.16 37.2908 150.037 37.1359 150.24C37.0096 150.397 37.0589 150.589 37.1088 150.784C37.1781 151.055 37.2484 151.329 36.8468 151.516C36.8198 151.417 36.8004 151.313 36.7811 151.21C36.7046 150.801 36.6306 150.405 36.0998 150.383C35.6593 151.108 35.8194 151.842 35.9797 152.576L36.0027 152.681C36.0419 152.822 36.0685 152.966 36.0822 153.111C36.1257 154.715 36.2882 156.314 36.5685 157.892C36.6023 158.077 36.5918 158.269 36.5814 158.461C36.5717 158.639 36.562 158.818 36.5875 158.991L36.5981 159.062C36.6913 159.698 36.7878 160.355 37.4679 160.687C37.675 160.45 37.6784 160.164 37.6818 159.884C37.6858 159.545 37.6897 159.215 38.0512 158.988L38.4441 161.044L39.3374 161.102L39.6641 159.395C40.2257 160.292 40.3266 160.285 41.2653 159.482ZM88.225 73.339C88.3609 73.4446 88.5011 73.5113 88.6344 73.5748C88.8906 73.6967 89.1216 73.8067 89.2489 74.1571L88.6491 73.9975C88.5988 74.1555 88.5497 74.3142 88.5006 74.4729L88.5006 74.4732L88.5005 74.4734L88.5004 74.4737L88.5003 74.474C88.3682 74.9013 88.236 75.329 88.0784 75.7453C88.0229 75.8923 87.7884 76.0978 87.6753 76.0756C87.3097 76.0046 86.9867 76.1213 86.667 76.2368C86.4408 76.3185 86.2162 76.3996 85.9793 76.4133C85.7077 76.4014 85.4439 76.3205 85.2127 76.1782C85.1537 76.1473 85.1201 76.0681 85.0865 75.9891C85.0532 75.9105 85.0199 75.832 84.9618 75.8013C84.787 75.7499 84.6041 75.7311 84.4221 75.7458L84.4431 75.6826C84.7136 74.8671 84.7276 74.825 84.1155 74.0146C83.8822 73.7059 83.8805 73.376 83.8788 73.0415C83.8777 72.8374 83.8767 72.6316 83.823 72.4278L83.4488 72.6524L83.2441 72.7753C83.2329 72.7071 83.212 72.6341 83.1916 72.5628C83.149 72.4139 83.1084 72.272 83.1615 72.194C84.1451 70.7497 84.1661 70.7159 84.094 69.4046C83.6046 69.6475 83.5744 70.055 83.5423 70.4862C83.5211 70.772 83.4991 71.0683 83.3422 71.3341C83.2909 71.2865 83.227 71.2377 83.1648 71.1903C83.0361 71.0922 82.915 70.9999 82.9286 70.9349C82.9583 70.7923 82.9838 70.6483 83.0093 70.5045C83.156 69.6762 83.3015 68.855 84.2328 68.3596C84.2757 68.3368 84.3152 68.3149 84.3521 68.2944C84.608 68.1521 84.7419 68.0776 85.0389 68.271C85.2793 68.3948 85.548 68.4539 85.8187 68.4424C86.3027 68.4553 86.7872 68.4488 87.2941 68.442L87.2942 68.442L87.295 68.442C87.5044 68.4392 87.7176 68.4363 87.9362 68.4348L87.9326 68.8679C88.0227 69.1025 88.2415 69.1527 88.4289 69.1958C88.6853 69.2546 88.883 69.3001 88.6123 69.7855C88.5611 69.8775 88.658 69.9044 88.7736 69.9365C88.958 69.9876 89.1901 70.0519 88.9453 70.4148C88.8385 70.5732 88.932 70.8668 89.0219 71.1493L89.0219 71.1493L89.022 71.1494C89.0618 71.2745 89.1009 71.3974 89.1216 71.5054C89.0071 71.5861 88.8954 71.6646 88.785 71.7421L88.5216 71.9271C88.5527 72.0089 88.5841 72.0906 88.6157 72.1721L88.9041 72.0163L89.4002 71.7481C89.3767 72.1147 89.3604 72.3713 89.344 72.6298L89.3234 72.9529C88.9849 73.0723 88.6049 73.2058 88.225 73.339ZM22.9944 80.8161L23.1016 82.2615C23.308 82.2614 23.5139 82.2379 23.7153 82.1912C23.8702 82.1004 24.0198 82.0006 24.1633 81.8924L24.1876 81.8778L24.1877 81.8777C24.3306 81.7921 24.5578 81.6558 24.5872 81.6879C24.8194 81.943 25.1236 81.9032 25.4269 81.8635C25.7521 81.8209 26.0764 81.7784 26.3102 82.0995C26.4155 82.0349 26.5174 81.9648 26.6153 81.8894C26.4519 81.614 26.6147 81.4699 26.7757 81.3275C26.8604 81.2526 26.9445 81.1782 26.9806 81.0853C27.1359 80.6855 27.1384 80.2844 27.1409 79.8878C27.1426 79.6074 27.1443 79.3293 27.2 79.0555C27.4484 77.8729 27.422 76.6503 27.1228 75.4827L24.4166 74.1655L23.618 75.3494C23.4748 75.1545 23.4445 74.9163 23.4151 74.6854C23.3729 74.3539 23.3325 74.0372 22.9633 73.8846C22.3673 74.4554 21.9535 75.116 21.9734 75.8779C21.99 76.5083 21.9548 77.1361 21.9198 77.7632C21.8859 78.368 21.8521 78.9721 21.8647 79.5772C21.8477 80.1578 21.9847 80.7317 22.2617 81.2402L22.9944 80.8161ZM39.9496 115.024L39.6775 116.46L40.2999 116.018C40.3034 116.026 40.3075 116.034 40.3119 116.042C40.3201 116.057 40.3293 116.073 40.3386 116.088C40.3688 116.138 40.3987 116.187 40.3868 116.222C40.215 116.702 40.1701 117.219 40.2567 117.72C40.2938 118.039 40.2868 118.361 40.2359 118.679C40.1412 119.221 40.3221 119.773 40.7182 120.151C40.9023 120.045 41.0922 119.936 41.1802 119.885L41.5067 120.831C41.4664 120.891 41.4376 120.939 41.4158 120.975C41.3825 121.03 41.3659 121.058 41.3499 121.058C41.1007 121.054 40.8517 121.044 40.6154 121.034L40.4305 121.026C40.2657 121.397 40.116 121.735 39.8919 122.239L39.3258 121.255L38.7019 121.611L38.172 121.914L37.5419 121.587L37.1774 122.127C36.2617 122.175 35.8062 121.778 35.6056 120.94C35.5227 120.594 35.4214 120.252 35.3187 119.906L35.3186 119.906C35.1506 119.339 34.9788 118.76 34.8776 118.126L35.9551 118.133C36.1501 117.54 36.2177 116.914 36.1535 116.294C36.1148 115.833 36.1938 115.362 36.2714 114.898L36.2714 114.898C36.3051 114.697 36.3386 114.497 36.362 114.301C36.8763 114.142 37.0216 114.431 37.1747 114.734C37.2152 114.815 37.2563 114.896 37.3049 114.971C37.336 114.934 37.3721 114.9 37.4074 114.866C37.4817 114.795 37.5527 114.728 37.5667 114.65C37.6947 113.938 37.9819 113.738 38.5117 114.061C38.8564 114.271 39.1891 114.501 39.5169 114.728C39.6619 114.828 39.8059 114.927 39.9496 115.024ZM2.30739 97.8746L2.30977 96.632L2.26519 96.6318L2.19658 96.631C1.87757 96.6268 1.59684 96.623 1.32274 96.9557C0.698443 97.7124 0.556431 98.6102 0.414898 99.505C0.378474 99.7353 0.342081 99.9654 0.297505 100.193C0.208054 100.649 0.735003 101.173 1.28634 101.391C1.50443 101.484 1.70973 101.604 1.89727 101.748C2.35387 102.129 3.03083 102.079 3.43162 101.635C3.74004 101.34 3.97983 101.166 4.40823 101.305C4.77667 101.455 5.19859 101.283 5.36047 100.917C5.38066 100.882 5.40045 100.847 5.4203 100.811C5.58209 100.521 5.7486 100.221 6.17844 100.186C6.35134 100.094 6.46635 99.92 6.48399 99.7248C6.48227 99.6301 6.41204 99.5258 6.34627 99.4281C6.27689 99.3251 6.21247 99.2294 6.23869 99.1601C6.27155 99.0735 6.38302 99.0218 6.49868 98.9681C6.60487 98.9189 6.71459 98.868 6.77031 98.787C7.16025 98.2206 6.94036 97.6375 6.61217 97.1667C6.52449 97.0404 6.3949 96.9484 6.26214 96.8542C6.06189 96.712 5.85444 96.5647 5.77278 96.287C5.76528 96.2615 5.60339 96.287 5.41266 96.3169L5.41234 96.317L5.41228 96.317C5.26026 96.3409 5.08997 96.3677 4.96488 96.3739C4.82091 96.3586 4.67967 96.3244 4.54481 96.2721L3.8746 97.2657C3.93506 96.8579 3.96559 96.6527 3.99084 96.4842L3.28796 96.0101C3.22765 96.1647 3.17004 96.3144 3.11386 96.4605L3.11383 96.4606C2.96235 96.8544 2.82122 97.2213 2.66524 97.5821C2.63668 97.6484 2.56476 97.6962 2.47206 97.7578C2.42204 97.791 2.36597 97.8283 2.30739 97.8746ZM55.8233 100.896L56.6244 101.865C57.052 101.584 57.3541 101.24 57.2455 100.657C57.6513 100.597 57.7772 100.844 57.9078 101.101C57.9976 101.277 58.0896 101.458 58.2763 101.546L58.8351 100.977C59.1172 100.911 59.2218 101.092 59.3321 101.283C59.4411 101.472 59.5557 101.67 59.8527 101.65C60.2219 101.625 60.2404 101.885 60.2601 102.163C60.2732 102.346 60.2867 102.536 60.4016 102.659C60.5527 102.882 60.6326 103.145 60.6308 103.416C60.6626 103.778 60.5999 104.136 60.5368 104.496C60.4493 104.996 60.3611 105.499 60.5248 106.023C60.5697 106.167 60.4295 106.37 60.2694 106.602C60.1894 106.718 60.1044 106.841 60.0351 106.967C59.8033 106.561 59.4876 106.64 59.1704 106.72C58.869 106.796 58.5663 106.872 58.3326 106.533C58.2058 106.59 58.098 106.696 57.988 106.804C57.7328 107.054 57.4654 107.317 56.9191 107.02L56.9778 106.131L56.6318 106.336L56.2727 106.548C55.8166 106.376 55.8438 105.927 55.8631 105.61L55.8657 105.567C55.93 104.536 55.7312 103.507 55.2881 102.578C55.0126 101.988 55.0647 101.363 55.8233 100.896ZM69.3857 64.7964L71.7355 64.6214C71.7897 64.4808 71.8621 64.3325 71.9372 64.1786C72.1126 63.8196 72.3026 63.4305 72.3087 63.04C72.3437 62.0431 72.2242 61.0476 71.9543 60.0892C71.6164 58.9949 71.0741 57.9148 69.5574 58.1622C69.4601 58.178 69.3531 58.1308 69.2322 58.0775C69.1693 58.0498 69.1027 58.0205 69.0318 57.9975C68.9797 58.1206 68.9165 58.2374 68.8563 58.3487C68.7334 58.5759 68.6229 58.7801 68.6447 58.9682C68.6592 59.0949 68.6762 59.2212 68.6931 59.3473C68.7938 60.098 68.893 60.8379 68.4827 61.5588C68.6468 62.1011 68.5591 62.6341 68.472 63.163C68.4198 63.4803 68.3679 63.7962 68.3706 64.1117L69.3857 64.7964Z" fill="#171B1B"/>
</svg>
