<svg width="48" height="48" xmlns="http://www.w3.org/2000/svg" fill="none">
  <rect x="0" y="0" id="svg_1" fill="#171B1B" rx="24" height="48" width="48"/>
  <path id="svg_2" fill="#F5D3AB" d="m15.28905,12.039c-7.20111,3.75501 4.23407,25.9821 11.60115,22.615c0.121,-0.055 2.1021,-1.029 2.1101,-1.033l-3.5211,-6.795c-0.007,0.004 -1.973,0.97 -2.064,1.011c-2.23906,1.086 -6.79813,-7.81998 -4.60909,-8.99398l2.08203,-1.02601l-3.49206,-6.81701l-2.10703,1.039zm12.98025,10.076l-2.9171,-0.87l0.869,-2.91599c0.746,0.222 1.409,0.73001 1.808,1.46901c0.4001,0.738 0.4631,1.56998 0.2401,2.31698zm-1.1131,-6.92799c1.5511,0.462 2.9261,1.516 3.7561,3.051c0.831,1.53601 0.96,3.26299 0.498,4.81299l-1.795,-0.535c0.325,-1.091 0.233,-2.30598 -0.352,-3.38698c-0.583,-1.08101 -1.5511,-1.82201 -2.6431,-2.14601l0.536,-1.796zm6.6791,1.469c-1.266,-2.344 -3.364,-3.95101 -5.7291,-4.65601l-0.549,1.84101c1.8951,0.564 3.5751,1.852 4.5911,3.729c1.014,1.87601 1.172,3.98699 0.608,5.88199l1.84,0.548c0.7051,-2.366 0.5081,-5.00098 -0.761,-7.34399z" clip-rule="evenodd" fill-rule="evenodd"/>
</svg>