<svg width="48" height="168" viewBox="0 0 48 168" fill="none" xmlns="http://www.w3.org/2000/svg">
<path fill-rule="evenodd" clip-rule="evenodd" d="M39.2557 1.29665C39.1412 1.33915 39.0219 1.38346 38.8952 1.42932C38.3443 0.512877 38.1178 0.385936 37.309 0.734311L37.2569 0.756647C36.8669 0.923829 36.4526 1.10144 36.2297 1.55947C36.1217 1.78171 35.9733 1.9839 35.8246 2.18636C35.6829 2.37937 35.541 2.57263 35.4338 2.78376C34.9924 3.65477 34.6711 4.56216 34.905 5.56958C34.9803 5.89318 35.0395 6.22055 35.1009 6.55965L35.1009 6.55967C35.1293 6.71641 35.1581 6.87565 35.1892 7.0382L35.5204 7.26161C35.5604 7.28856 35.6006 7.31514 35.6409 7.34173L35.6409 7.34175L35.6409 7.34177L35.6409 7.34179L35.641 7.3418L35.641 7.34182L35.641 7.34184L35.641 7.34186L35.6411 7.34188L35.6411 7.3419L35.6411 7.34192L35.6412 7.34193L35.6412 7.34195L35.6412 7.34197L35.6412 7.34199L35.6413 7.34201L35.6413 7.34203L35.6413 7.34204L35.6413 7.34206L35.6414 7.34208L35.6414 7.3421L35.6414 7.34212L35.6415 7.34214L35.6415 7.34216L35.6415 7.34218L35.6416 7.3422L35.6416 7.34223L35.6416 7.34225L35.6417 7.34227L35.6417 7.3423L35.6417 7.34232L35.6418 7.34234L35.6418 7.34236L35.6418 7.34239L35.6419 7.34241L35.6419 7.34243L35.6419 7.34246L35.642 7.34248L35.642 7.3425L35.642 7.34252L35.6421 7.34255L35.6421 7.34257L35.6421 7.34259L35.6422 7.34261L35.6422 7.34264C35.7229 7.39593 35.8036 7.44925 35.8821 7.5056C36.4959 7.94586 36.4952 7.94814 36.2406 8.86334L36.2347 8.88459C36.2108 8.97028 36.2069 9.06861 36.2031 9.16511C36.1973 9.31111 36.1917 9.45289 36.1171 9.54027C35.6745 10.058 35.8067 10.5599 36.0235 11.0941L36.6692 10.5706L37.3873 9.98832L37.5409 10.1435L36.6323 11.4906C37.3375 12.2441 37.7913 11.7482 38.2146 11.2856C38.2409 11.2568 38.2671 11.2282 38.2932 11.2C38.642 11.7653 39.0048 12.0644 39.5809 11.7329C40.0442 11.4662 40.0949 11.7494 40.1466 12.0381C40.1537 12.0778 40.1608 12.1176 40.1691 12.1561C41.1609 11.7413 41.9824 10.9984 42.496 10.0517C42.9235 9.33327 43.4001 8.6443 43.8768 7.95519L43.8768 7.95515L43.8768 7.95509L43.8769 7.95503L43.8769 7.95497L43.8769 7.9549L43.877 7.95484L43.877 7.95478L43.8771 7.95471L43.8771 7.95465L43.8772 7.95459L43.8772 7.95453L43.8772 7.95446L43.8773 7.9544L43.8773 7.95434L43.8774 7.95427L43.8774 7.95421L43.8775 7.95415L43.8775 7.95409L43.8775 7.95402L43.8776 7.95396L43.8776 7.9539L43.8777 7.95384L43.8777 7.95377C44.1228 7.59943 44.368 7.24506 44.6064 6.88661C44.7359 6.67118 44.8545 6.44937 44.9616 6.22204L44.8339 6.14391L43.9287 7.23415C43.9945 6.84463 44.1538 6.47647 44.3929 6.16145C44.5974 5.84414 44.7773 5.51164 44.9309 5.1669C45.0406 4.83486 45.1272 4.49574 45.1902 4.15199L44.6178 4.58293C44.7127 3.55364 44.7114 3.55318 43.8237 3.22447L43.8166 3.22187C43.6953 3.17666 43.5027 3.1012 43.4912 3.02087C43.432 2.57807 43.222 2.52639 42.8016 2.54048C42.7033 2.5437 42.6137 2.4039 42.515 2.2499C42.4241 2.10791 42.3253 1.95385 42.2049 1.88865C41.8799 1.73424 41.5245 1.65379 41.1641 1.65301C40.9296 1.64401 40.8447 1.48016 40.7621 1.32058C40.6858 1.17339 40.6115 1.02983 40.4233 1.01472C40.286 0.99486 40.1461 1.00052 40.0106 1.03141C39.7651 1.10749 39.5238 1.19709 39.2557 1.29665ZM54.5693 27.8172C54.3995 27.7672 54.2786 27.5514 54.0412 27.1276C53.9021 27.1832 53.7534 27.2034 53.6033 27.2239C53.2833 27.2675 52.957 27.3119 52.7044 27.7003C52.3644 28.2054 52.2256 28.8191 52.3156 29.4195C52.3243 29.4883 52.3301 29.5603 52.3359 29.6331C52.3546 29.8663 52.3739 30.1067 52.4925 30.2681C52.8398 30.741 52.9123 31.28 52.9846 31.8177C53.0197 32.079 53.0548 32.3401 53.1214 32.5931C53.3568 33.4902 53.0565 34.3595 52.6315 35.1003C51.5999 36.899 51.595 38.8493 51.5902 40.798L51.5898 40.9557C51.5888 41.5866 52.0305 41.9975 52.4789 42.4147C52.5554 42.486 52.6322 42.5574 52.707 42.6301L52.7437 42.6658C53.555 43.4548 53.7456 43.6402 54.5514 43.2049L54.6398 43.1569C55.145 42.8812 55.4741 42.7016 55.6773 43.4841C55.6917 43.5432 55.9221 43.5552 56.1005 43.5645C56.132 43.5662 56.1618 43.5677 56.1886 43.5694C56.2606 43.5739 56.3568 43.5639 56.445 43.5547C56.5637 43.5423 56.6678 43.5314 56.6786 43.5595C56.9326 44.2487 57.2866 43.806 57.4638 43.5844L57.4727 43.5732C57.5327 43.4983 57.5938 43.4232 57.6553 43.3476L57.6554 43.3475L57.6555 43.3474C58.0609 42.8489 58.4806 42.333 58.6769 41.7532C58.7457 41.5493 58.8369 41.3479 58.9286 41.1454L58.9286 41.1454L58.9287 41.1453L58.9287 41.1453L58.9287 41.1452L58.9287 41.1451L58.9288 41.1451L58.9288 41.145L58.9288 41.145L58.9288 41.1449L58.9289 41.1448L58.9289 41.1448L58.9289 41.1447L58.9289 41.1447L58.929 41.1446L58.929 41.1446L58.929 41.1445L58.929 41.1444L58.9291 41.1444L58.9291 41.1443L58.9291 41.1443L58.9291 41.1442L58.9292 41.1441L58.9292 41.1441L58.9292 41.144C59.1593 40.636 59.3923 40.1214 59.2849 39.5453C59.1819 39.1742 59.2667 38.775 59.512 38.4764C59.5987 38.3166 59.6379 38.1356 59.6251 37.9548C59.6304 37.835 59.6364 37.7152 59.6423 37.5954C59.6681 37.0757 59.6939 36.5556 59.6751 36.0376C59.6624 35.6898 59.6255 35.343 59.5886 34.9962C59.5509 34.6418 59.5132 34.2874 59.5013 33.9321C59.4842 33.4301 59.4232 32.93 59.363 32.4366L59.363 32.4365L59.3629 32.4356C59.351 32.3378 59.3391 32.2403 59.3275 32.143C59.3143 32.0314 59.3029 31.9185 59.2915 31.805L59.2915 31.8049C59.2141 31.0383 59.1342 30.2473 58.4741 29.6556C58.0228 29.2103 57.596 28.7406 57.1955 28.2488C56.7295 28.3445 56.4096 28.1014 56.0911 27.8594C55.8866 27.704 55.6825 27.549 55.4407 27.4844C54.9743 27.7425 54.7455 27.8692 54.5693 27.8172ZM90.4222 167.344C91.3014 166.398 92.3239 165.716 93.5855 165.624C93.6881 165.423 93.779 165.237 93.8642 165.064L93.8644 165.063L93.8652 165.061L93.8654 165.061C94.035 164.715 94.182 164.416 94.3535 164.133C94.6936 163.575 94.9172 162.926 94.4904 162.442C93.9812 161.865 93.775 161.377 94.1929 160.696C94.2312 160.611 94.2286 160.513 94.1861 160.431C93.7628 159.764 93.6642 159.014 93.5657 158.264L93.5656 158.264C93.5142 157.872 93.4628 157.481 93.3654 157.102L93.3274 156.953C93.1119 156.103 93.1003 156.058 92.0841 155.472C91.88 155.355 91.6667 155.253 91.4218 155.136L91.2771 155.066C91.1988 155.029 91.1173 154.989 91.0317 154.947C90.9383 154.166 90.8943 153.379 90.8999 152.592C90.9118 152.375 90.8835 152.153 90.8551 151.931C90.7954 151.464 90.7354 150.995 91.0498 150.558C90.7184 150.263 90.6852 149.865 90.6551 149.504C90.6355 149.269 90.6172 149.05 90.5188 148.885L89.1269 148.303L88.6726 148.976C88.6136 148.757 88.5792 148.629 88.5641 148.571L87.906 148.563C87.5204 150.941 87.3606 153.349 87.4287 155.754C87.4578 156.123 87.2639 156.475 86.9362 156.648C86.9356 156.272 86.9292 155.905 86.9229 155.545C86.9091 154.753 86.8958 153.994 86.9462 153.239C87.011 152.271 87.1294 151.306 87.248 150.34L87.2481 150.34L87.2481 150.339L87.2482 150.338L87.2483 150.337L87.2484 150.337C87.2995 149.92 87.3507 149.504 87.3976 149.086C86.4356 149.11 86.4351 149.113 86.2957 149.861L86.2895 149.895C85.8835 152.074 85.7965 154.281 85.7098 156.482L85.7098 156.482C85.6966 156.817 85.6834 157.152 85.669 157.487C85.5629 159.97 85.5543 162.467 86.1872 164.919C86.3108 165.397 86.525 165.814 86.7388 166.23L86.7389 166.231C86.8361 166.42 86.9333 166.609 87.0219 166.804C87.1649 167.032 87.4136 167.171 87.6829 167.174C88.0595 167.095 88.3427 167.209 88.6472 167.331L88.7062 167.354C88.7648 167.378 88.8245 167.401 88.886 167.423C88.9248 167.436 88.9644 167.451 89.0046 167.466C89.4499 167.629 89.9776 167.823 90.4222 167.344ZM101.308 126.016C101.247 125.694 101.194 125.38 101.143 125.073C101.034 124.421 100.93 123.799 100.756 123.198C100.162 121.147 100.403 119.104 100.644 117.062C100.701 116.581 100.758 116.101 100.803 115.62C100.895 114.665 101.446 113.915 101.992 113.174L101.992 113.173C102.094 113.035 102.195 112.897 102.293 112.759C102.367 112.654 102.536 112.618 102.711 112.58C102.793 112.563 102.877 112.545 102.952 112.519L102.948 112.552C102.891 112.995 102.837 113.415 102.759 114.022L103.879 112.362C104.026 112.382 104.168 112.409 104.305 112.435C104.604 112.492 104.881 112.545 105.143 112.506C105.534 112.466 105.914 112.64 106.138 112.961C106.318 113.163 106.417 113.438 106.52 113.725C106.566 113.853 106.613 113.983 106.668 114.111C105.895 114.857 105.744 115.817 105.653 116.862C105.814 116.917 105.951 117.025 106.09 117.136C106.339 117.333 106.595 117.536 107.007 117.449C107.203 117.46 107.379 117.568 107.478 117.736C107.608 118.017 107.76 118.292 107.911 118.566C108.4 119.45 108.89 120.336 108.655 121.457L108.638 121.532L108.638 121.533C108.584 121.782 108.522 122.072 108.618 122.259C108.686 122.39 108.633 122.515 108.58 122.639C108.508 122.811 108.436 122.981 108.684 123.162C108.918 123.334 108.783 123.486 108.646 123.641C108.577 123.719 108.508 123.798 108.484 123.879C108.415 124.188 108.324 124.491 108.212 124.787C108.072 125.043 107.911 125.288 107.731 125.518C106.295 125.726 104.93 126.283 103.754 127.139L101.308 126.016ZM102.384 58.596L102.381 58.596C101.802 58.6017 101.231 58.6074 100.662 58.5833C100.616 58.5815 100.576 58.4508 100.525 58.2859L100.525 58.2857L100.525 58.2854C100.498 58.198 100.468 58.1009 100.433 58.0084C100.205 58.1432 99.9673 58.2609 99.7221 58.3605C99.4397 58.4346 99.1537 58.494 98.8654 58.5387L98.7886 58.5552C98.2356 58.675 97.687 58.7939 97.5524 57.9583C97.5458 57.9174 97.4884 57.8872 97.4281 57.8554C97.3906 57.8357 97.3519 57.8153 97.3237 57.7914C97.1912 57.6793 97.0516 57.5814 96.9128 57.4841C96.5031 57.1967 96.1003 56.9142 95.9063 56.2862C95.8234 56.0178 95.7087 55.7538 95.5927 55.4867C95.416 55.08 95.2362 54.6662 95.1608 54.2186C94.9996 53.5301 94.9377 52.8215 94.977 52.1143C95.1029 50.9956 95.2285 49.8905 96.0371 49.0233C96.3109 48.8039 96.6096 48.618 96.9271 48.4697L97.2597 49.5938C97.4353 49.45 97.5985 49.286 97.7635 49.1203L97.7636 49.1202C98.1993 48.6824 98.6471 48.2324 99.3691 48.1089L99.7399 49.1812L100.338 48.2951C100.614 48.4195 100.893 48.5258 101.169 48.631C101.776 48.8626 102.369 49.0888 102.894 49.4912C103.31 49.7835 103.607 50.2168 103.73 50.7119C103.774 50.9195 103.836 51.1218 103.899 51.3245C104.019 51.716 104.14 52.1093 104.136 52.5464C104.132 52.8492 104.167 53.1524 104.201 53.4586C104.235 53.7575 104.27 54.0593 104.269 54.3662C104.268 55.0041 104.113 55.6066 103.959 56.2082C103.867 56.5684 103.774 56.9283 103.715 57.2952C103.663 57.6173 103.423 57.9098 103.184 58.1994C103.077 58.3299 102.97 58.4599 102.881 58.5917C102.717 58.5927 102.554 58.5943 102.392 58.5959L102.384 58.596ZM34.2577 49.9258L36.0176 47.3166L35.831 47.113C35.6508 47.2637 35.4479 47.4044 35.2449 47.5452L35.2448 47.5452L35.2448 47.5452C34.7839 47.8647 34.3229 48.1843 34.1286 48.6209C34.0479 48.8032 33.9569 48.9842 33.8651 49.167L33.865 49.1671C33.5733 49.7475 33.2729 50.345 33.269 51.0537C33.2666 51.4716 33.2067 51.8916 33.1467 52.3113C33.0079 53.2839 32.8693 54.2549 33.4486 55.1951C33.1918 55.8824 33.5272 56.4105 33.8493 56.9174C33.9359 57.0536 34.0214 57.1883 34.0943 57.3242C34.5655 58.2032 35.0952 59.1063 36.3309 59.1279C37.1532 59.1422 37.9745 59.1952 38.7874 59.2475C39.1426 59.2704 39.4962 59.2932 39.8475 59.3126C40.0801 58.9117 40.3429 58.5291 40.6338 58.1683C41.2691 57.4938 41.3606 56.6201 41.3079 55.8318C41.2767 55.3712 41.4025 54.9126 41.6646 54.5313C41.7195 54.0311 41.5833 53.6133 41.4511 53.2078C41.3344 52.8497 41.2208 52.5012 41.2449 52.1143C41.2111 51.7024 40.9921 51.3295 40.6497 51.1008C40.4434 50.9778 40.2552 50.8203 40.0661 50.6622L40.0661 50.6621L40.0661 50.6621L40.066 50.6621L40.066 50.6621L40.066 50.6621L40.066 50.6621L40.0659 50.662L40.0659 50.662L40.0659 50.662L40.0658 50.662L40.0658 50.662L40.0658 50.6619L40.0658 50.6619L40.0657 50.6619L40.0657 50.6619L40.0657 50.6619L40.0656 50.6618L40.0656 50.6618L40.0656 50.6618L40.0656 50.6618C39.6373 50.3035 39.2051 49.942 38.552 49.9705C38.4522 49.9748 38.3538 49.8333 38.2479 49.6809L38.2478 49.6809C38.1747 49.5757 38.0979 49.4653 38.0146 49.3942C37.9502 49.3392 37.8491 49.3273 37.715 49.3115C37.6437 49.3031 37.5632 49.2936 37.4739 49.276C37.6686 49.0581 37.8272 48.8104 37.9438 48.5425C38.0039 48.3021 37.9677 47.8519 37.8315 47.7865C37.418 47.6134 36.9801 47.5051 36.5331 47.4654C36.2028 47.4209 36.0687 47.6585 35.9383 47.8893C35.8996 47.9578 35.8613 48.0258 35.8182 48.0855C35.7325 48.2043 35.6489 48.3246 35.5652 48.4449L35.5651 48.445C35.1918 48.9819 34.8176 49.5199 34.2577 49.9258ZM50.5269 76.2478L49.9951 73.4659C50.2756 72.9984 50.588 72.5507 50.9302 72.1261C51.0715 71.9674 51.4385 71.9608 51.6938 71.9839C51.7611 71.9899 51.8159 72.1304 51.8706 72.2705C51.8944 72.3316 51.9182 72.3926 51.943 72.4423C52.0029 72.4087 52.0631 72.3713 52.1237 72.3337C52.4792 72.1131 52.8515 71.8819 53.2917 72.3227C53.3841 72.4317 53.5138 72.5022 53.6558 72.5203C54.1138 72.4798 54.6013 72.4507 54.9079 72.8117C55.0126 72.9349 55.122 73.0571 55.232 73.1799C55.6997 73.7022 56.1778 74.236 56.3486 74.9055C56.7653 76.5403 57.0757 78.2208 56.6892 79.9154C56.4758 80.9324 56.1651 81.9269 55.7614 82.8851C55.5472 83.3866 55.066 83.7222 54.5234 83.7488C54.1328 83.7567 53.7422 83.773 53.3516 83.7893L53.3515 83.7893L53.3512 83.7893L53.3511 83.7893L53.3508 83.7893L53.3506 83.7893L53.3503 83.7893L53.3502 83.7893L53.3499 83.7893L53.3498 83.7893L53.3495 83.7893L53.3494 83.7893L53.3491 83.7893L53.349 83.7893L53.3487 83.7894L53.3485 83.7894L53.3482 83.7894L53.3481 83.7894L53.3478 83.7894L53.3477 83.7894C52.7266 83.8153 52.1058 83.8412 51.4855 83.8332C51.1195 83.8296 50.7643 83.7123 50.4689 83.4974C48.8157 82.1598 48.125 80.4842 48.9527 78.1383C48.9921 78.0266 49.021 77.9059 49.0499 77.7855C49.1093 77.5376 49.1684 77.291 49.3182 77.1258C49.6884 76.7902 50.0936 76.4958 50.5269 76.2478ZM24.2561 121.386L23.906 122.214C24.3389 121.941 24.6249 121.654 24.5895 121.082C24.5671 120.717 24.6286 120.356 24.6906 119.992L24.6907 119.992C24.7742 119.502 24.8587 119.006 24.7397 118.488C24.6416 118.174 24.5806 117.85 24.5577 117.522C24.6589 115.514 23.8857 113.82 22.8648 112.195L22.8415 112.158L22.8252 112.131C22.7093 111.943 22.5543 111.691 22.4399 111.702C22.0739 111.736 21.9311 111.533 21.7798 111.318C21.7436 111.267 21.7069 111.215 21.6666 111.165C21.5494 111.021 21.3341 110.829 21.1961 110.854C20.7301 110.936 20.2974 110.841 19.8612 110.746L19.861 110.746C19.7669 110.726 19.6726 110.705 19.5778 110.686C19.4597 110.663 19.2289 110.633 19.2428 110.96C19.2491 111.121 19.165 111.286 19.0692 111.474C19.0226 111.565 18.9734 111.662 18.9303 111.766C18.539 111.07 18.1377 110.609 17.4683 110.876C17.4218 111.077 17.3637 111.273 17.307 111.464L17.3069 111.464L17.3069 111.465L17.3069 111.465L17.3069 111.465L17.3069 111.465L17.3068 111.465L17.3068 111.465L17.3068 111.465L17.3068 111.465L17.3068 111.465L17.3067 111.465L17.3067 111.465L17.3067 111.465L17.3067 111.465L17.3067 111.465L17.3067 111.465L17.3066 111.466L17.3066 111.466C17.1852 111.875 17.0697 112.264 17.0864 112.646C17.1024 113.014 17.071 113.385 17.0396 113.758C16.9724 114.553 16.9051 115.35 17.3009 116.112C17.1369 117.868 17.8567 119.361 18.5793 120.861L18.5793 120.861L18.5797 120.862C18.6405 120.988 18.7013 121.114 18.7616 121.24C18.949 121.769 19.4567 122.113 20.0172 122.092C20.0276 122.092 20.0382 122.092 20.0489 122.092L20.0702 122.092L20.0954 122.092C20.322 122.089 20.5963 122.085 20.6968 122.499C20.7729 122.653 20.914 122.766 21.0818 122.805C21.2495 122.844 21.4265 122.807 21.5646 122.702C21.9038 122.408 22.3352 122.304 22.7682 122.2C23.3261 122.065 23.8867 121.93 24.2561 121.386ZM135.508 114.998L136.076 114.37C136.092 114.413 136.11 114.451 136.126 114.484C136.155 114.546 136.177 114.593 136.169 114.634C136.113 114.898 136.065 115.164 136.016 115.43L136.016 115.43C135.887 116.141 135.757 116.852 135.489 117.535L135.451 117.633C135.236 118.189 135.03 118.718 134.31 118.781C134.111 118.799 133.962 118.957 133.812 119.115C133.57 119.371 133.327 119.627 132.878 119.285C132.152 119.612 131.628 119.199 131.121 118.8L131.082 118.769C130.735 119.078 130.368 119.363 129.982 119.622C129.547 119.877 128.896 119.593 128.395 118.996C128.348 118.94 128.314 118.869 128.279 118.799C128.23 118.697 128.181 118.598 128.099 118.552L128.071 118.537C127.034 117.962 127.032 117.961 127.146 116.887C127.174 116.345 127.233 115.804 127.322 115.267C127.473 114.669 127.358 114.037 127.007 113.534C126.482 112.728 126.413 111.705 126.823 110.83C127.185 110.039 127.956 109.609 128.934 109.522L128.964 110.057L128.965 110.072L128.971 110.176L128.973 110.213L128.974 110.223L128.974 110.229L128.975 110.255C128.998 110.659 129.024 111.1 129.054 111.634C129.18 111.448 129.292 111.28 129.395 111.126L129.398 111.122L129.401 111.118L129.403 111.113L129.406 111.11L129.409 111.106C129.625 110.783 129.802 110.518 129.986 110.257C130.205 109.946 130.24 109.953 130.655 110.039C130.761 110.061 130.891 110.088 131.055 110.116C131.25 110.149 131.435 110.249 131.619 110.348C131.977 110.542 132.334 110.736 132.777 110.442L134.118 111.274C134.945 111.785 135.599 112.355 135.367 113.509C135.303 113.823 135.365 114.161 135.43 114.51C135.459 114.671 135.489 114.834 135.508 114.998ZM12.0002 38.1277C11.5675 38.9278 11.7204 39.916 12.3735 40.5413L13.4871 39.8021C13.2498 40.5926 13.2007 41.2771 13.9048 41.8729C14.1731 41.7152 14.4491 41.5713 14.7318 41.4416C14.8073 41.4107 14.8959 41.3975 14.9838 41.3844C15.2314 41.3476 15.4722 41.3118 15.3917 40.8824L16.0774 41.4244C16.5027 41.165 17.0714 40.8187 17.6043 40.4943C17.6672 40.5646 17.7285 40.6337 17.7888 40.7019L17.7888 40.7019L17.7892 40.7024C17.9803 40.9182 18.1619 41.1232 18.3546 41.3169C18.3877 41.3523 18.5674 41.3153 18.5979 41.2632C18.6633 41.1502 18.7458 40.9525 18.6951 40.8864C18.6445 40.8201 18.5605 40.772 18.4793 40.7256C18.3814 40.6696 18.2875 40.6158 18.2607 40.5352C18.2299 40.4448 18.2878 40.3236 18.3668 40.1585C18.4079 40.0726 18.4547 39.9747 18.4976 39.8631L18.6908 40.6232C18.8793 40.3439 19.0647 40.0694 19.2475 39.7986L19.2477 39.7984L19.2478 39.7982C19.9193 38.8041 20.5566 37.8604 21.1854 36.911C21.2231 36.8538 21.2248 36.775 21.2265 36.6945C21.2278 36.6319 21.2291 36.5683 21.2475 36.513C21.3488 36.2077 21.3945 35.8828 21.4392 35.5642C21.5274 34.936 21.6122 34.3324 22.1139 33.952C22.3118 33.1541 21.8733 32.8049 21.4611 32.4766C21.1907 32.2612 20.9317 32.0549 20.8709 31.7368C20.6624 31.7138 20.4492 31.7099 20.2413 31.7062C19.794 31.6981 19.3717 31.6904 19.0757 31.4933C18.7511 31.2772 18.4027 31.2855 18.0611 31.2937C17.7128 31.3021 17.3715 31.3103 17.0697 31.0803C16.9924 31.0212 16.6612 31.1437 16.579 31.2698C16.4312 31.4964 16.2242 31.6511 16.0149 31.8076C15.7814 31.9822 15.5448 32.1591 15.384 32.4404C14.7557 33.5443 14.0458 34.5996 13.2602 35.5976C12.8415 36.1265 12.5935 36.7296 12.3473 37.3284C12.2364 37.598 12.1259 37.8669 12.0002 38.1277ZM63.341 156.262L63.3407 156.262L63.3404 156.261C62.8483 155.88 62.4065 155.537 61.7528 155.954C61.6991 154.934 61.9629 154.413 62.8451 154.225C63.0696 154.178 63.2859 154.106 63.5032 154.035C63.8756 153.912 64.2512 153.788 64.6768 153.78C65.0176 153.774 65.3503 153.598 65.6883 153.418C65.9357 153.287 66.1859 153.154 66.4443 153.085C66.7696 152.999 67.1206 153.011 67.4715 153.023C67.628 153.028 67.7846 153.034 67.9388 153.031L68.0729 153.697L67.2315 153.719L67.196 153.908L68.1489 154.352C68.1483 154.401 68.139 154.466 68.1284 154.539C68.1004 154.732 68.064 154.983 68.1602 155.161C68.9576 156.638 69.0171 158.246 69.0196 159.858C69.0202 160.171 68.939 160.484 68.8574 160.798L68.8574 160.798C68.8014 161.014 68.7452 161.23 68.7153 161.448L68.6864 161.66C68.5314 162.802 68.4933 163.083 67.7785 163.841C67.2316 164.421 66.644 165.036 65.7759 165.225C65.4132 165.28 65.0782 165.453 64.8228 165.718C64.3393 166.378 63.896 166.237 63.3757 165.835C63.226 165.722 63.059 165.633 62.8812 165.574C61.7585 165.19 61.6785 165.098 61.699 164.046C61.7241 162.75 62.0755 161.517 62.4263 160.287L62.4264 160.287C62.4969 160.039 62.5675 159.792 62.6353 159.544C62.8336 158.818 63.0728 158.104 63.3088 157.398L63.309 157.398C63.4132 157.086 63.5167 156.777 63.6158 156.469C63.5215 156.402 63.4304 156.331 63.341 156.262ZM57.0548 132.38C57.1188 132.507 57.1831 132.634 57.2463 132.762C57.6674 132.435 58.1741 132.282 58.3434 132.744C58.5834 133.405 58.8829 133.125 59.1257 132.889C59.173 132.843 59.2176 132.792 59.262 132.741C59.4151 132.565 59.565 132.392 59.8076 132.462C60.1859 132.571 60.5 132.433 60.8101 132.297C60.9436 132.239 61.0764 132.181 61.2132 132.143C61.5813 132.04 62.0591 131.769 62.1786 131.455C62.3584 130.91 62.4162 130.332 62.3479 129.764C62.3179 129.428 62.2136 129.1 62.1091 128.772C62.0402 128.555 61.9713 128.339 61.9233 128.119C61.8623 127.841 61.8112 127.559 61.7601 127.278C61.6151 126.479 61.47 125.68 61.0967 124.945C60.9326 124.622 60.8075 124.28 60.6824 123.938L60.6824 123.938C60.4475 123.295 60.2126 122.652 59.7196 122.14C59.201 121.674 58.8494 121.05 58.7179 120.363C58.5951 119.591 58.2073 119.435 57.3127 119.452C57.2051 119.454 57.0799 119.444 56.9538 119.434C56.6572 119.412 56.3556 119.389 56.2673 119.514C56.0376 119.839 55.8434 119.713 55.6498 119.588C55.4717 119.472 55.2942 119.357 55.0902 119.594C54.8022 121.176 54.9945 122.828 55.1858 124.472C55.2077 124.66 55.2296 124.848 55.2507 125.036C55.3825 126.204 55.6245 127.36 55.8666 128.516L55.8666 128.516C55.9845 129.079 56.1024 129.642 56.2076 130.207C56.3536 130.99 56.7013 131.679 57.0548 132.38ZM109.88 154.213L109.88 154.213L109.884 154.159C109.972 152.899 110.149 151.647 110.414 150.411C110.473 150.144 110.516 149.869 110.56 149.593C110.718 148.603 110.879 147.591 111.756 146.794C111.996 147.422 111.875 148.027 111.75 148.655C111.636 149.227 111.518 149.816 111.666 150.457C112.051 149.7 112.22 148.929 112.396 148.127C112.531 147.511 112.67 146.878 112.913 146.22L113.411 147.193C113.591 147.006 113.78 146.811 113.969 146.616L115.265 147.171C115.262 147.245 115.257 147.329 115.252 147.418L115.252 147.418L115.252 147.42C115.239 147.641 115.225 147.902 115.231 148.162C115.264 149.576 115.271 149.586 116.191 150.837L116.214 150.868C116.315 151.018 116.4 151.178 116.466 151.346C117.016 152.607 117.427 153.887 117.239 155.308C117.165 155.952 116.967 156.577 116.655 157.146C116.595 157.27 116.577 157.409 116.604 157.543C116.636 157.663 116.603 157.792 116.516 157.882C116.429 157.971 116.302 158.009 116.181 157.98C115.765 157.948 115.383 158.071 115.001 158.193C114.692 158.292 114.384 158.391 114.059 158.408C113.777 158.443 113.523 158.599 113.363 158.835C113.077 159.149 112.096 159.142 111.829 158.856C111.774 158.797 111.751 158.708 111.727 158.618C111.68 158.44 111.632 158.261 111.336 158.319C111.101 158.38 110.87 158.456 110.645 158.547C109.666 157.066 109.774 155.624 109.88 154.213ZM89.8032 103.434L90.6233 103.809C90.9577 103.649 91.07 103.343 91.183 103.035C91.2851 102.757 91.3878 102.477 91.6557 102.302C91.7615 102.182 91.7708 102.005 91.6782 101.875C91.5856 101.745 91.4154 101.696 91.2676 101.758C91.2092 101.77 91.1273 101.659 91.0456 101.549C91.0079 101.499 90.9703 101.448 90.935 101.409C90.9682 101.382 91.0075 101.345 91.0467 101.307C91.1308 101.228 91.2149 101.148 91.2401 101.163C91.9001 101.571 92.0721 100.904 92.1392 100.616C92.1956 100.374 92.2564 100.133 92.3172 99.8909C92.5654 98.9043 92.8149 97.9128 92.7773 96.8886L92.7768 96.8748C92.7572 96.343 92.7322 95.6659 91.8605 95.7519C91.8158 95.7551 91.7382 95.6723 91.7133 95.6134C91.44 94.9656 91.0122 94.9522 90.4822 95.2995C90.0194 95.6027 89.9595 95.2814 89.9126 95.0298L89.9044 94.9864L88.8833 95.0682L88.456 96.2899C88.3767 96.1271 88.3715 95.9562 88.3665 95.7888C88.3579 95.5026 88.3495 95.2265 87.9709 95.0191L87.8061 95.0996L87.8058 95.0997L87.8048 95.1002L87.8038 95.1007L87.8035 95.1009L87.8027 95.1013C87.6418 95.18 87.4625 95.2676 87.2822 95.353C87.1945 95.3941 87.1 95.4522 87.0055 95.5104C86.7963 95.6391 86.5867 95.7681 86.4497 95.7134C85.8825 95.4872 85.8174 95.8321 85.7586 96.1437C85.7509 96.1843 85.7434 96.2243 85.7348 96.2624C85.6362 96.701 85.5585 97.1442 85.4807 97.5874C85.4261 97.8991 85.3714 98.2108 85.3095 98.521C85.2546 98.7027 85.1814 98.8785 85.0912 99.0456L84.8526 98.9769C85.0324 97.9199 85.2124 96.8632 85.4146 95.6762C84.7378 96.3009 84.6173 96.9529 84.4937 97.6655C84.3019 98.7929 84.2559 99.9395 84.357 101.077C84.4805 102.518 84.8611 103.902 86.3868 104.563C86.5059 104.627 86.6186 104.702 86.7236 104.786L89.7242 104.193L89.8032 103.434ZM103.75 74.9079L103.911 75.7478L104.185 75.4275C104.344 75.2418 104.493 75.0676 104.651 74.8835C104.82 74.952 104.991 75.019 105.164 75.0865C105.574 75.2464 105.991 75.4092 106.394 75.602C106.744 75.7701 107.067 75.9894 107.352 76.2529C107.442 76.3365 107.408 76.4419 107.369 76.5613C107.315 76.7258 107.252 76.9168 107.496 77.114C107.72 77.2958 107.683 77.7683 107.648 78.1988L107.648 78.1993L107.648 78.1999L107.648 78.2013C107.641 78.2897 107.634 78.3762 107.63 78.4582C107.623 78.5841 107.55 78.7145 107.477 78.8464C107.322 79.1248 107.163 79.4101 107.609 79.6752L106.876 80.904C106.86 80.9315 106.846 80.9608 106.833 80.9902L106.822 81.0153L106.815 81.0293L107.393 84.048C107.598 84.1669 107.794 84.302 107.979 84.4521C108.246 84.7025 108.368 85.2196 108.088 85.3014C107.756 85.3987 107.723 85.6449 107.691 85.8787C107.664 86.0816 107.638 86.2752 107.419 86.3543C106.294 86.006 105.979 85.8383 105.309 85.1919C105.219 85.7345 105.142 86.2076 105.044 86.802C104.984 86.8125 104.911 86.8356 104.834 86.8601C104.651 86.9179 104.444 86.9833 104.334 86.9076C104.123 86.7632 103.902 86.6291 103.68 86.4947L103.68 86.4946C102.861 85.9972 102.036 85.497 101.715 84.4657C101.568 84.1241 101.458 83.767 101.387 83.401C101.333 82.6951 101.328 81.9847 101.324 81.275L101.323 81.0481L101.322 80.9139C101.32 80.6768 101.332 80.4396 101.344 80.2023C101.353 80.0299 101.361 79.8574 101.365 79.6848C101.37 79.4448 101.446 79.2127 101.523 78.9806C101.648 78.5991 101.774 78.2177 101.581 77.8013C101.918 77.4323 101.982 76.9895 102.047 76.5369L102.047 76.5366C102.067 76.3979 102.087 76.2582 102.115 76.1195C102.164 75.7383 102.367 75.393 102.676 75.1641C102.985 74.9352 103.373 74.8426 103.75 74.9079ZM79.7259 32.4766L78.6103 31.7241C77.9352 31.1519 77.1371 30.7436 76.2776 30.5307C75.9108 30.4379 75.5289 30.4466 75.1441 30.4554C74.7529 30.4643 74.3587 30.4733 73.9742 30.3759C73.8874 30.3537 73.7107 30.4885 73.6505 30.5931C73.4621 30.9147 73.2968 31.2491 73.1558 31.594C72.8973 32.24 72.9248 32.9062 72.9524 33.5746C72.9607 33.7755 72.969 33.9765 72.9696 34.1772C72.975 35.8901 73.3345 37.4146 74.8798 38.4141C75 38.4815 75.0912 38.5907 75.1362 38.7213C75.2158 39.2339 75.5486 39.2497 75.8798 39.2655C76.0609 39.2741 76.2415 39.2827 76.3801 39.3723C77.0525 39.0756 77.7515 39.1616 78.433 39.2454C78.6747 39.2751 78.9142 39.3046 79.1495 39.3166C79.9501 39.3575 80.3557 39.1055 80.5741 38.5207C80.6175 38.4045 80.6627 38.2881 80.708 38.1715C81.0627 37.258 81.4247 36.3257 81.02 35.3044C80.9662 35.1673 80.95 35.0145 80.9337 34.8612C80.8997 34.5403 80.8655 34.2178 80.4849 34.036C80.3849 33.9568 80.3332 33.831 80.3484 33.7037C80.642 33.0749 80.2463 32.8169 79.8484 32.5574C79.8074 32.5306 79.7663 32.5038 79.7259 32.4766ZM36.8858 89.4036C36.8738 89.8028 36.8649 90.0962 36.848 90.6662C36.9799 90.5177 37.0786 90.4071 37.1568 90.3197L37.1572 90.3192L37.1576 90.3188C37.2819 90.1797 37.3538 90.0992 37.4239 90.0167L37.4252 90.0151C37.5982 89.811 37.6917 89.7007 37.8047 89.6745C37.9377 89.6437 38.0978 89.7293 38.4462 89.9159L38.4479 89.9168C38.4686 89.9279 38.4911 89.9419 38.5141 89.9562C38.5815 89.998 38.6531 90.0425 38.6948 90.0241C39.194 89.7776 39.7956 89.9212 40.1267 90.3661C40.5498 90.8338 40.876 91.3813 41.0864 91.9771C41.7275 94.2569 41.46 96.5531 40.9259 98.8203C40.8637 99.0852 40.6734 99.3202 40.4843 99.5538C40.3974 99.6612 40.3107 99.7683 40.2368 99.8778L39.8101 99.5152C39.5462 99.9717 39.2306 100.228 38.654 99.9901C38.4236 99.9322 38.1789 99.9922 38.0003 100.151C37.7593 100.442 37.5331 100.342 37.3112 100.244C37.16 100.177 37.0107 100.111 36.8602 100.171C36.8729 99.8076 36.6209 99.7045 36.3671 99.6007C36.1459 99.5102 35.9235 99.4192 35.8741 99.155C35.8386 98.9642 35.7824 98.7728 35.7264 98.582L35.7264 98.5819C35.6225 98.2279 35.5193 97.876 35.5496 97.5332C35.6238 96.3647 35.8236 95.2068 36.1456 94.0799C36.3331 93.6019 36.3201 93.0694 36.1094 92.6036C35.744 91.8955 35.6122 91.0885 35.7328 90.2981L35.7372 90.2712C35.8461 89.6141 35.8469 89.6093 36.8858 89.4036ZM69.3831 90.1054C69.2626 90.2358 69.1596 90.3814 69.0767 90.5383C69.0865 91.0153 69.1468 91.4695 69.2059 91.9146C69.234 92.1262 69.2618 92.3358 69.2838 92.5448C69.4158 93.8406 69.554 95.1716 70.34 96.3424C70.8651 97.1238 71.5942 97.4885 72.315 97.2365C72.5215 97.1642 72.7484 97.1637 72.9743 97.1632C73.3782 97.1624 73.7789 97.1615 74.0538 96.7502C74.7784 97.1017 75.0369 96.4757 75.1695 96.0588C75.5407 94.8929 75.89 93.6963 75.7213 92.449C75.6903 92.2193 75.6134 91.9967 75.5363 91.7738L75.5362 91.7737C75.465 91.5676 75.3937 91.3613 75.3586 91.1492C75.3005 90.7984 75.2836 90.4406 75.2654 90.0543L75.2653 90.0542C75.2571 89.8789 75.2485 89.6978 75.2357 89.5088L73.2268 88.6558L73.0769 88.8151L72.9765 88.9217L72.9747 88.9236C72.8472 89.059 72.7178 89.1963 72.5615 89.363L71.962 87.3548C71.8096 87.3805 71.6526 87.423 71.5045 87.4631C71.2034 87.5446 70.9394 87.616 70.8274 87.516C70.6452 87.3542 70.4411 87.2985 70.237 87.2429C70.0367 87.1883 69.8364 87.1337 69.6567 86.9787C69.6673 87.191 69.8224 87.3318 69.9719 87.4675C70.2036 87.6778 70.4218 87.8759 70.0685 88.309L69.6688 87.6844C69.0911 88.1309 69.3159 88.6089 69.5494 89.1054L69.5495 89.1058C69.5725 89.1545 69.5955 89.2035 69.6178 89.2526C69.699 88.9985 69.7817 88.7449 69.8837 88.4305C70.0015 88.5318 70.1012 88.6526 70.1785 88.7876C70.2383 88.9657 70.2513 89.1565 70.2164 89.3416C70.2044 89.3908 70.137 89.4224 70.0655 89.456C70.0001 89.4867 69.9312 89.519 69.8983 89.5677C69.862 89.6229 69.8522 89.6981 69.8425 89.7719C69.8319 89.8533 69.8215 89.933 69.7759 89.9824C69.735 90.027 69.6577 90.0365 69.5795 90.0461C69.5042 90.0554 69.4282 90.0647 69.3831 90.1054ZM78.3564 119.742L78.8167 120.352C79.2136 119.815 79.1454 119.277 79.0762 118.732C79.0174 118.269 78.958 117.8 79.1828 117.322C79.3216 117.502 79.4399 117.696 79.5354 117.903C79.6221 118.243 79.6913 118.588 79.7425 118.936C79.967 118.551 80.0482 118.1 79.9715 117.662C80.6203 117.469 80.9053 117.384 81.163 117.436C81.3649 117.476 81.5501 117.6 81.8803 117.821C81.9097 118.048 81.9244 118.284 81.9392 118.522L81.9392 118.522C81.9732 119.069 82.0079 119.628 82.2237 120.102C82.4316 120.56 82.4237 121.009 82.4158 121.455C82.4107 121.742 82.4056 122.028 82.4581 122.313C82.5414 123.038 82.516 123.771 82.3828 124.489C82.3526 124.9 82.2021 125.295 81.9501 125.622C81.6245 125.971 81.0712 126.434 80.7214 126.36C80.3198 126.275 80.1421 126.439 79.9597 126.607C79.8806 126.68 79.8005 126.754 79.7009 126.808C79.2513 127.055 78.7367 127.242 78.1926 126.993C78.0773 126.94 77.9396 126.906 77.8039 126.871L77.8038 126.871C77.5657 126.811 77.334 126.752 77.2414 126.602C76.8611 126.031 76.5944 125.391 76.456 124.718C76.2746 123.468 76.1737 122.208 76.154 120.944C76.1482 120.735 76.2881 120.52 76.4528 120.268L76.4528 120.268L76.4529 120.267C76.5366 120.139 76.6266 120.001 76.7072 119.849L76.9132 120.524C77.1315 120.072 77.5064 119.987 77.8602 119.906C78.0385 119.866 78.2115 119.827 78.3564 119.742ZM41.515 159.266L41.9196 160.056C42.1287 159.602 42.3068 159.135 42.4528 158.657C42.4979 158.453 42.4254 158.075 42.2905 158.007C41.9945 157.86 41.9321 157.597 41.874 157.352C41.8365 157.194 41.8007 157.043 41.7048 156.936C41.4611 156.665 41.4174 156.372 41.374 156.081C41.357 155.967 41.3401 155.854 41.3112 155.742C41.2529 155.515 41.2232 155.275 41.1936 155.036C41.1435 154.631 41.0938 154.23 40.9065 153.906C40.7197 153.583 40.653 153.249 40.5872 152.92C40.5447 152.707 40.5025 152.495 40.4284 152.29C40.2978 151.927 40.1605 151.567 40.0236 151.208L40.0235 151.208L40.0234 151.208L40.0233 151.207L40.0232 151.207L40.0227 151.206L40.0223 151.205L39.9515 151.019C39.9148 150.923 39.8782 150.826 39.8419 150.73L38.5331 149.847C38.3653 150.376 38.1356 150.221 37.904 150.066C37.7228 149.944 37.5405 149.821 37.3856 150.024C37.2592 150.181 37.3086 150.373 37.3584 150.568C37.4277 150.839 37.498 151.113 37.0964 151.301C37.0695 151.201 37.05 151.097 37.0307 150.994C36.9543 150.585 36.8802 150.189 36.3494 150.167C35.9089 150.892 36.0691 151.626 36.2293 152.36L36.2523 152.465C36.2915 152.606 36.3181 152.75 36.3319 152.895C36.3753 154.5 36.5378 156.098 36.8181 157.677C36.8519 157.861 36.8415 158.053 36.831 158.245C36.8213 158.424 36.8116 158.602 36.8372 158.775L36.8477 158.846C36.9409 159.482 37.0374 160.14 37.7176 160.471C37.9247 160.234 37.9281 159.948 37.9314 159.668C37.9354 159.33 37.9393 159 38.3008 158.772L38.6937 160.828L39.587 160.887L39.9138 159.18C40.4754 160.076 40.5762 160.069 41.515 159.266ZM88.4746 73.1232C88.6106 73.2288 88.7507 73.2955 88.8841 73.359C89.1402 73.4809 89.3712 73.5909 89.4985 73.9412L88.8988 73.7817C88.8484 73.9397 88.7994 74.0983 88.7503 74.257L88.7502 74.2573L88.7501 74.2576L88.75 74.2579L88.7499 74.2582C88.6178 74.6855 88.4856 75.1131 88.328 75.5295C88.2725 75.6765 88.038 75.8819 87.9249 75.8598C87.5594 75.7888 87.2364 75.9055 86.9166 76.021C86.6904 76.1027 86.4658 76.1838 86.229 76.1975C85.9573 76.1855 85.6935 76.1046 85.4623 75.9623C85.4033 75.9315 85.3697 75.8523 85.3362 75.7732C85.3028 75.6946 85.2695 75.6162 85.2114 75.5855C85.0366 75.5341 84.8537 75.5153 84.6717 75.53L84.6927 75.4668C84.9632 74.6513 84.9772 74.6092 84.3652 73.7988C84.1318 73.4901 84.1301 73.1602 84.1284 72.8256C84.1274 72.6215 84.1263 72.4157 84.0726 72.212L83.6984 72.4366L83.4938 72.5595C83.4826 72.4912 83.4617 72.4183 83.4413 72.347C83.3987 72.1981 83.358 72.0562 83.4112 71.9782C84.3947 70.5339 84.4157 70.5001 84.3436 69.1887C83.8543 69.4317 83.824 69.8391 83.792 70.2704C83.7707 70.5562 83.7487 70.8524 83.5919 71.1183C83.5405 71.0706 83.4766 71.0219 83.4144 70.9745C83.2858 70.8764 83.1646 70.7841 83.1782 70.7191C83.2079 70.5765 83.2334 70.4325 83.2589 70.2886C83.4057 69.4603 83.5512 68.6391 84.4825 68.1438C84.5253 68.121 84.5648 68.0991 84.6017 68.0785C84.8577 67.9362 84.9915 67.8618 85.2886 68.0552C85.5289 68.179 85.7976 68.238 86.0683 68.2265C86.5523 68.2395 87.0368 68.233 87.5437 68.2262L87.5439 68.2262L87.5447 68.2262C87.7541 68.2234 87.9673 68.2205 88.1858 68.2189L88.1823 68.6521C88.2723 68.8866 88.4911 68.9369 88.6785 68.9799C88.935 69.0388 89.1327 69.0842 88.8619 69.5697C88.8107 69.6617 88.9076 69.6886 89.0232 69.7206C89.2077 69.7718 89.4397 69.8361 89.195 70.199C89.0882 70.3574 89.1816 70.651 89.2716 70.9335L89.2716 70.9335L89.2716 70.9336C89.3114 71.0587 89.3506 71.1816 89.3713 71.2896C89.2567 71.3704 89.1448 71.4489 89.0344 71.5264L88.7712 71.7113C88.8024 71.7931 88.8337 71.8747 88.8653 71.9563L89.1537 71.8004L89.6498 71.5323C89.6263 71.8989 89.61 72.1555 89.5936 72.414L89.5731 72.7371C89.2346 72.8565 88.8545 72.99 88.4746 73.1232ZM23.244 80.6003L23.3512 82.0457C23.5576 82.0456 23.7635 82.022 23.9649 81.9754C24.1199 81.8846 24.2695 81.7848 24.4129 81.6765L24.4372 81.662L24.4373 81.6619C24.5802 81.5762 24.8075 81.4399 24.8368 81.4721C25.069 81.7272 25.3732 81.6874 25.6766 81.6476C26.0018 81.6051 26.3261 81.5626 26.5598 81.8837C26.6652 81.8191 26.767 81.7489 26.865 81.6735C26.7015 81.3981 26.8643 81.2541 27.0254 81.1117C27.11 81.0368 27.1942 80.9623 27.2302 80.8695C27.3856 80.4697 27.388 80.0685 27.3905 79.672C27.3922 79.3916 27.394 79.1135 27.4497 78.8397C27.6981 77.657 27.6716 76.4345 27.3724 75.2668L24.6662 73.9497L23.8676 75.1336C23.7245 74.9387 23.6941 74.7005 23.6647 74.4695C23.6225 74.138 23.5822 73.8214 23.2129 73.6688C22.6169 74.2396 22.2031 74.9001 22.2231 75.662C22.2396 76.2925 22.2045 76.9203 22.1694 77.5474C22.1355 78.1522 22.1018 78.7563 22.1144 79.3614C22.0974 79.942 22.2344 80.5158 22.5113 81.0244L23.244 80.6003ZM40.1992 114.808L39.9271 116.244L40.5495 115.803C40.5531 115.81 40.5572 115.818 40.5616 115.827C40.5697 115.842 40.579 115.857 40.5882 115.872C40.6184 115.922 40.6483 115.972 40.6364 116.006C40.4646 116.487 40.4198 117.003 40.5064 117.504C40.5434 117.823 40.5364 118.145 40.4856 118.463C40.3909 119.005 40.5718 119.557 40.9679 119.935C41.1519 119.829 41.3418 119.72 41.4299 119.669L41.7563 120.615C41.716 120.675 41.6872 120.723 41.6655 120.759C41.6322 120.815 41.6155 120.842 41.5995 120.842C41.3503 120.839 41.1013 120.828 40.8651 120.818L40.6801 120.81C40.5153 121.181 40.3656 121.519 40.1415 122.023L39.5754 121.039L38.9515 121.395L38.4217 121.698L37.7915 121.371L37.4271 121.911C36.5114 121.959 36.0558 121.563 35.8552 120.725C35.7723 120.378 35.671 120.037 35.5683 119.69L35.5683 119.69C35.4002 119.123 35.2285 118.544 35.1272 117.911L36.2047 117.918C36.3997 117.325 36.4673 116.698 36.4031 116.078C36.3644 115.617 36.4434 115.146 36.521 114.683L36.5211 114.682C36.5548 114.481 36.5882 114.282 36.6117 114.085C37.1259 113.927 37.2712 114.215 37.4243 114.518C37.4648 114.599 37.5059 114.68 37.5545 114.755C37.5856 114.718 37.6217 114.684 37.657 114.65C37.7314 114.579 37.8023 114.512 37.8163 114.434C37.9443 113.722 38.2315 113.522 38.7614 113.845C39.106 114.055 39.4387 114.285 39.7665 114.512C39.9115 114.612 40.0555 114.711 40.1992 114.808ZM2.55703 97.6588L2.5594 96.4162C2.52263 96.4162 2.48638 96.4157 2.45061 96.4152L2.4467 96.4152L2.44623 96.4152C2.12722 96.4109 1.84648 96.4072 1.57237 96.7398C0.948075 97.4965 0.80606 98.3944 0.664529 99.2892L0.664495 99.2895L0.664477 99.2896C0.628068 99.5197 0.591691 99.7497 0.547139 99.977C0.45769 100.433 0.984637 100.957 1.53597 101.175C1.75406 101.268 1.95936 101.388 2.1469 101.532C2.6035 101.913 3.28046 101.863 3.68126 101.419C3.98968 101.125 4.22946 100.95 4.65786 101.09C5.0263 101.239 5.44822 101.067 5.61011 100.701C5.6303 100.667 5.65008 100.631 5.66993 100.595C5.83173 100.305 5.99824 100.006 6.42807 99.97C6.60098 99.8777 6.71598 99.7042 6.73363 99.509C6.7319 99.4142 6.66167 99.31 6.5959 99.2123C6.52652 99.1093 6.46211 99.0136 6.48832 98.9443C6.52119 98.8576 6.63265 98.806 6.74832 98.7523C6.8545 98.7031 6.96422 98.6522 7.01994 98.5711C7.40989 98.0048 7.18999 97.4216 6.8618 96.9509C6.77412 96.8246 6.64453 96.7326 6.51177 96.6383C6.31152 96.4962 6.10408 96.3488 6.02242 96.0711C6.01491 96.0457 5.85303 96.0711 5.6623 96.1011L5.66197 96.1012L5.66192 96.1012C5.5099 96.1251 5.3396 96.1519 5.21452 96.1581C5.07054 96.1428 4.92931 96.1085 4.79444 96.0563L4.12423 97.0499C4.18469 96.642 4.21522 96.4369 4.24047 96.2684L3.5376 95.7943C3.47731 95.9488 3.41973 96.0985 3.36357 96.2445L3.3635 96.2447C3.21201 96.6385 3.07087 97.0055 2.91488 97.3663C2.88632 97.4326 2.81439 97.4804 2.72169 97.542C2.67167 97.5752 2.6156 97.6125 2.55703 97.6588ZM56.0729 100.68L56.8741 101.649C57.3016 101.368 57.6037 101.024 57.4951 100.441C57.9009 100.381 58.0269 100.628 58.1575 100.885C58.2472 101.061 58.3392 101.242 58.5259 101.33L59.0847 100.761C59.3668 100.695 59.4714 100.876 59.5817 101.067C59.6907 101.256 59.8053 101.454 60.1023 101.434C60.4715 101.41 60.49 101.669 60.5098 101.947C60.5228 102.13 60.5364 102.321 60.6513 102.443C60.8024 102.666 60.8823 102.93 60.8805 103.2C60.9122 103.562 60.8495 103.92 60.7865 104.28C60.6989 104.78 60.6107 105.283 60.7744 105.807C60.8194 105.951 60.6791 106.154 60.519 106.386C60.439 106.502 60.354 106.625 60.2848 106.751C60.0529 106.345 59.7373 106.424 59.42 106.504C59.1187 106.58 58.8159 106.656 58.5822 106.317C58.4554 106.374 58.3477 106.48 58.2376 106.588C57.9825 106.838 57.715 107.101 57.1687 106.804L57.2274 105.915L56.8815 106.12L56.5223 106.332C56.0662 106.16 56.0935 105.711 56.1127 105.394L56.1153 105.351C56.1796 104.32 55.9808 103.292 55.5378 102.362C55.2623 101.772 55.3144 101.147 56.0729 100.68ZM69.6353 64.5806L71.9851 64.4055C72.0393 64.265 72.1117 64.1166 72.1869 63.9628C72.3622 63.6037 72.5522 63.2147 72.5583 62.8242C72.5934 61.8272 72.4738 60.8318 72.2039 59.8734C71.866 58.7791 71.3237 57.699 69.807 57.9463C69.7098 57.9621 69.6027 57.915 69.4818 57.8617C69.419 57.834 69.3523 57.8046 69.2814 57.7817C69.2293 57.9048 69.1661 58.0216 69.1059 58.1329C68.983 58.3601 68.8725 58.5643 68.8943 58.7524C68.9089 58.879 68.9258 59.0054 68.9427 59.1314C69.0434 59.8821 69.1426 60.622 68.7324 61.3429C68.8964 61.8853 68.8087 62.4183 68.7217 62.9472C68.6695 63.2645 68.6175 63.5804 68.6203 63.8959L69.6353 64.5806Z" fill="#F5D3AB"/>
</svg>
