<svg width="48" height="48" xmlns="http://www.w3.org/2000/svg" fill="none">
  <rect id="svg_1" fill="#171B1B" rx="24" height="48" width="48"/>
  <path id="svg_2" fill="#F5D3AB" d="m16,18.602c0,-4.199 3.802,-7.602 8,-7.602c4.199,0 8,3.403 8,7.602c0,3.7886 -2.8253,8.2401 -6.70677,14.3556c-0.41948,0.661 -0.8513,1.3413 -1.29323,2.0424c-0.44193,-0.7011 -0.87375,-1.3814 -1.29323,-2.0424c-3.88146,-6.1155 -6.70677,-10.567 -6.70677,-14.3556zm2,0.398c0,3.314 2.686,6 6,6c3.314,0 6,-2.686 6,-6c0,-3.314 -2.686,-6 -6,-6c-3.314,0 -6,2.686 -6,6z" clip-rule="evenodd" fill-rule="evenodd"/>
</svg>