<svg width="197" height="51" viewBox="0 0 197 51" fill="none" xmlns="http://www.w3.org/2000/svg">
<path fill-rule="evenodd" clip-rule="evenodd" d="M185.281 139.152C185.795 137.776 186.31 136.398 187.157 135.164C186.536 137.086 185.709 138.935 184.69 140.679C184.898 140.175 185.089 139.664 185.281 139.152ZM187.176 135.129L187.64 134.515C186.117 138.964 184.069 143.217 181.54 147.183C177.907 152.772 173.47 157.796 168.372 162.093C163.372 166.291 158.082 170.132 152.541 173.588C144.493 178.694 136.516 183.9 129.045 189.846C122.861 194.702 117.698 200.731 113.853 207.587C112.332 210.315 110.859 213.065 109.515 215.972C109.294 215.651 109.402 215.425 109.524 215.17C109.617 214.976 109.719 214.765 109.689 214.482C109.565 214.761 109.414 215.026 109.272 215.277C108.977 215.798 108.717 216.257 108.8 216.643C108.994 217.286 108.824 217.983 108.354 218.462C107.15 219.402 106.724 220.714 106.299 222.021C106.106 222.616 105.913 223.21 105.647 223.767C105.322 224.448 105.169 225.193 105.015 225.943C104.849 226.747 104.683 227.558 104.302 228.303C103.998 228.897 103.741 229.511 103.484 230.125C102.947 231.405 102.41 232.686 101.451 233.792C100.818 234.523 100.608 235.721 100.435 236.825C100.274 237.846 99.8297 239.064 99.0847 239.691C98.3113 240.343 97.9466 241.186 97.583 242.026L97.5829 242.026C97.3573 242.547 97.1321 243.068 96.8099 243.541C94.7829 246.587 92.5752 249.508 90.1986 252.289C86.7377 256.184 82.8766 259.705 78.6787 262.793C71.7559 267.994 63.8428 269.818 55.3602 269.624C46.8629 269.428 39.6417 266.361 33.9762 259.875L33.8642 259.747C30.9176 256.375 27.9715 253.003 25.3341 249.382C23.6058 247.048 22.1901 244.499 21.123 241.8C20.2572 239.561 18.7974 237.728 17.3391 235.897L17.3376 235.895C17.2222 235.75 17.1068 235.605 16.9917 235.46C12.8499 230.239 9.30302 224.676 7.00855 218.388C4.69274 212.038 3.91235 205.442 4.10394 198.729C4.35817 189.802 6.59991 181.284 9.40917 172.861L9.57493 172.364L9.57495 172.364C13.5626 160.411 17.5543 148.446 19.2918 135.89C20.5334 126.917 21.0162 117.93 19.5603 108.923C18.916 104.937 17.4152 101.262 15.7173 97.6264C14.6425 95.325 13.5176 93.047 12.3927 90.769C10.3852 86.7037 8.37774 82.6385 6.65579 78.4408C4.72597 73.7359 2.93801 68.9729 2.04676 63.942C0.484499 55.1256 0.0475912 46.2639 1.86815 37.4561C3.81913 28.0174 7.32171 19.2461 14.1008 12.1034C20.5528 5.30575 28.1767 0.83555 37.8032 0.622958C43.0677 0.508329 48.0539 1.94763 52.8305 4.04479C57.1425 5.93775 61.3542 8.04126 65.5664 10.145L65.5666 10.1451L65.5668 10.1452L65.5671 10.1453L65.5673 10.1454L65.5675 10.1455L65.5677 10.1456L65.5679 10.1456L65.5682 10.1457L65.5684 10.1458C69.9236 12.321 74.2793 14.4963 78.7466 16.4395C79.7735 16.8861 80.7976 17.3398 81.8216 17.7935C86.7353 19.9703 91.6478 22.1467 96.8664 23.5437C104.57 25.6077 112.224 25.1789 119.859 23.1272C123.089 22.2616 126.291 21.3017 129.493 20.3418L129.496 20.3406C131.381 19.7755 133.266 19.2103 135.157 18.6645C141.278 16.8975 147.469 15.5046 153.885 15.3741C165.158 15.1448 173.939 19.9427 180.738 28.7007C184.659 33.824 187.783 39.5091 190.003 45.5635C190.829 47.7547 191.506 49.9879 192.182 52.2147C192.299 52.6031 192.417 52.9913 192.535 53.3791C193.267 55.7697 193.758 58.2269 194.002 60.7142C194.102 61.7464 194.317 62.7651 194.532 63.7878L194.532 63.7881L194.532 63.7884C194.731 64.7336 194.931 65.6823 195.042 66.6483C195.906 73.9305 196.283 81.2617 196.17 88.5929C196.088 92.9899 195.689 97.36 195.257 101.721C194.912 105.209 194.36 108.68 193.666 112.141C193.497 112.986 193.334 113.833 193.171 114.681C192.783 116.701 192.393 118.725 191.916 120.722C191.726 121.512 191.39 122.26 191.051 123.014C190.737 123.711 190.421 124.412 190.218 125.157C189.425 128.255 188.404 131.29 187.164 134.238C187.034 134.53 186.929 134.835 187.176 135.129ZM14.0556 21.5563L13.8613 21.5245C13.6765 21.8903 13.484 22.253 13.2915 22.6157C12.869 23.4115 12.4466 24.2073 12.1056 25.0365C11.9811 25.3396 11.8558 25.6423 11.7305 25.945C10.2297 29.5702 8.7339 33.1833 8.66857 37.2587C8.66039 37.7801 8.52228 38.3115 8.38094 38.8553C8.20838 39.5192 8.03099 40.2017 8.07935 40.9071C8.13942 41.7788 8.01049 42.6282 7.88034 43.4856C7.74817 44.3563 7.61476 45.2352 7.67673 46.1541C7.86582 48.9662 7.97225 51.8103 7.93474 54.6374C7.91799 55.8936 8.12185 57.1094 8.32533 58.3229L8.32537 58.3232L8.32541 58.3234C8.42558 58.9209 8.52565 59.5177 8.59925 60.1185C8.85181 61.5473 9.18307 62.9611 9.59151 64.3536C10.197 66.9761 11.0228 69.5432 12.0602 72.0274C13.1259 74.5283 14.3003 76.9978 15.5054 79.4448C15.9748 80.3984 16.4607 81.3449 16.9466 82.2914C17.6911 83.7419 18.4358 85.1925 19.1218 86.6692C20.4318 89.5429 21.9266 92.3291 23.5969 95.0101C24.0378 95.7064 24.3142 96.4534 24.5907 97.2011L24.5908 97.2013C24.8419 97.8802 25.0933 98.5598 25.4683 99.2023C26.208 100.342 26.8094 101.565 27.26 102.846C27.9764 105.187 28.5166 107.579 28.8762 110C30.0193 118.107 29.692 126.204 28.5956 134.278C28.5436 134.662 28.4955 135.047 28.4475 135.432L28.4475 135.433L28.4474 135.433L28.4474 135.433L28.4474 135.433L28.4474 135.433L28.4473 135.433L28.4473 135.433L28.4473 135.433C28.1836 137.546 27.9187 139.669 26.976 141.643C26.5883 142.353 26.348 143.134 26.2693 143.939C26.2109 145.466 25.9143 146.973 25.3902 148.407C24.8019 150.076 24.3387 151.778 23.8752 153.482L23.8752 153.482C23.4971 154.872 23.1189 156.262 22.6723 157.635C21.0637 162.585 19.412 167.518 17.5151 172.36C16.9864 173.709 16.5469 175.087 16.1072 176.465L16.1072 176.465L16.1071 176.465L16.1071 176.465L16.1071 176.465L16.107 176.466L16.107 176.466L16.107 176.466L16.107 176.466L16.1069 176.466C15.5869 178.096 15.0666 179.727 14.3982 181.313C13.8347 182.652 13.5992 184.131 13.3642 185.607C13.2703 186.197 13.1765 186.786 13.062 187.365C11.1628 196.969 11.1684 206.487 14.7223 215.755C14.9297 216.295 14.9214 216.826 14.9132 217.349C14.9037 217.963 14.8942 218.567 15.2337 219.162C18.0647 224.127 20.8269 229.128 23.3783 234.246C25.1334 237.766 27.602 240.777 30.071 243.788C31.374 245.378 32.6771 246.967 33.8755 248.631L33.9354 248.714L33.9892 248.789L33.9899 248.79C34.5847 249.612 34.6166 249.656 34.6134 250.942C34.6132 251.043 34.7205 251.147 34.8238 251.247C34.8624 251.284 34.9003 251.321 34.932 251.357C35.699 252.23 36.4416 253.124 37.1841 254.018C38.7025 255.847 40.2207 257.676 41.9472 259.317C42.2105 259.567 42.4711 259.822 42.7319 260.076C44.0647 261.376 45.4026 262.681 47.1239 263.48C54.2929 266.802 61.4033 266.395 68.3851 262.958C72.3211 261.02 75.7141 258.275 78.9767 255.376C85.6903 249.446 91.0687 242.16 94.7575 234C96.2514 230.71 97.6512 227.38 99.0512 224.049C101.143 219.073 103.236 214.096 105.643 209.25C109.504 201.329 114.914 194.261 121.555 188.464C129.629 181.454 138.515 175.575 147.457 169.768C153.588 165.786 159.566 161.593 164.898 156.563C172.397 149.489 177.641 140.976 181.074 131.278C183.157 125.428 184.835 119.442 186.097 113.361C189.526 96.6888 190.53 79.8771 188.604 62.9181C187.725 55.184 186.074 47.6649 182.673 40.6013C180.379 35.8389 177.779 31.2797 174.095 27.4218C171.933 25.1585 169.524 23.2563 166.449 22.3934C162.681 21.3292 158.753 20.9525 154.852 21.2815C147.771 21.8731 141.035 23.9251 134.297 25.9777C133.478 26.2274 132.658 26.4771 131.838 26.7241C124.419 28.9582 117.003 31.0672 109.077 30.6729C104.55 30.4853 100.073 29.6499 95.7821 28.1922C85.2222 24.5299 75.3333 19.3891 65.4487 14.2506L65.448 14.2502L64.2805 13.6434C62.9434 12.9487 61.623 12.221 60.3027 11.4933L60.3023 11.4931C56.9347 9.63713 53.5673 7.78127 49.9249 6.47391C46.5249 5.25408 43.0596 4.40834 39.4123 4.57973C32.9782 4.97015 26.8857 7.59598 22.1893 12.0026C22.071 12.1398 21.9277 12.2532 21.7669 12.3369C20.0175 13.0156 19.0979 14.4783 18.1764 15.9439L18.1759 15.9447C18.0846 16.09 17.9931 16.2354 17.9009 16.3801C17.8364 16.481 17.7736 16.5927 17.7098 16.7061C17.5107 17.0601 17.3026 17.4301 17.0081 17.5386C16.2382 17.8224 15.9592 18.4577 15.6749 19.1049C15.4445 19.6296 15.2106 20.1622 14.7088 20.5217C14.4362 20.7172 14.2705 21.1932 14.0906 21.7102C13.9454 22.1274 13.791 22.5714 13.5634 22.9161L14.0556 21.5563ZM106.302 210.892C108.45 206.363 111.134 202.107 114.298 198.217C111.068 202.856 108.259 207.774 105.905 212.913C103.858 217.258 102.012 221.689 100.166 226.12C99.2664 228.278 98.3671 230.436 97.4447 232.584C96.5807 234.7 95.5327 236.736 94.3128 238.669C94.1398 237.957 94.4857 237.495 94.8218 237.047C94.9858 236.828 95.1476 236.612 95.2454 236.371C95.8756 234.824 96.5408 233.291 97.2059 231.758C97.8335 230.311 98.461 228.864 99.0591 227.406C101.342 221.843 103.686 216.308 106.302 210.892ZM8.35697 22.8954C11.1273 18.0404 14.566 13.5983 18.5726 9.69909C14.1095 13.1681 10.5959 17.7069 8.35697 22.8954ZM21.7372 134.784C22.957 128.456 23.2245 121.981 22.5308 115.572C22.6218 121.991 22.271 128.391 21.7372 134.784ZM6.21852 205.194C6.64371 210.932 7.58389 216.544 10.5036 221.634C8.45074 216.335 7.01298 210.819 6.21852 205.194ZM172.133 151.049L172.133 151.049C175.263 146.653 178.394 142.258 180.471 137.218C178.476 142.925 175.28 148.137 171.099 152.504C171.439 152.023 171.782 151.542 172.124 151.062L172.133 151.049ZM5.06154 30.1681C5.24111 30.1192 5.37195 30.0899 5.46473 30.0691C5.59708 30.0394 5.65197 30.0271 5.66036 30.0003C6.23597 27.9983 7.02272 26.0632 8.00737 24.2275C8.06369 24.1548 8.08757 24.0622 8.07337 23.9713C8.05917 23.8804 8.00817 23.7994 7.93235 23.7472C7.66742 23.5779 7.4919 23.7669 7.41166 23.9754C6.81416 25.5294 6.22569 27.0871 5.59932 28.7451L5.59848 28.7474L5.5974 28.7502C5.42209 29.2143 5.24382 29.6862 5.06154 30.1681ZM28.7117 117.568C28.9025 115.107 28.7115 112.631 28.1456 110.227L28.7117 117.568ZM105.294 222.411C106.665 220.39 106.929 219.254 106.064 218.419C106.742 219.415 106.319 220.062 105.876 220.738C105.554 221.231 105.221 221.739 105.294 222.411ZM104.433 226.973L104.575 227.07L102.405 231.945L102.25 231.876L104.433 226.973Z" fill="#9EAD8D"/>
</svg>
